<svg width="16" height="17" viewBox="0 0 16 17" fill="none" xmlns="http://www.w3.org/2000/svg">
    <path d="M5.71875 9H3.25C2.53125 9 1.90625 8.46875 1.78125 7.75L1.5625 6.5H0.5C0.21875 6.5 0 6.28125 0 6C0 5.75 0.21875 5.5 0.5 5.5H1.59375C1.78125 4.9375 2.34375 4.5 3 4.5H5.96875C6.40625 4.5 6.8125 4.71875 7.09375 5H8.90625C9.15625 4.71875 9.5625 4.5 10 4.5H12.9688C13.625 4.5 14.1875 4.9375 14.375 5.5H15.5C15.75 5.5 16 5.75 16 6C16 6.28125 15.75 6.5 15.5 6.5H14.4062L14.1875 7.75C14.0625 8.46875 13.4375 9 12.7188 9H10.25C9.53125 9 8.90625 8.46875 8.78125 7.75L8.53125 6.25C8.53125 6.1875 8.5 6.09375 8.5 6H7.46875C7.46875 6.09375 7.46875 6.1875 7.4375 6.25L7.1875 7.75C7.0625 8.46875 6.4375 9 5.71875 9Z"
          fill="white"/>
    <path d="M16 8.5C16 12.9375 12.4062 16.5 8 16.5C3.5625 16.5 0 12.9375 0 8.5C0 7.8125 0.09375 7.125 0.25 6.46875C0.3125 6.5 0.40625 6.5 0.5 6.5H1.5625L1.78125 7.75C1.90625 8.46875 2.53125 9 3.25 9H5.71875C6.4375 9 7.0625 8.46875 7.1875 7.75L7.4375 6.25C7.46875 6.1875 7.46875 6.09375 7.46875 6H8.5C8.5 6.09375 8.5 6.1875 8.53125 6.25L8.78125 7.75C8.90625 8.46875 9.53125 9 10.25 9H12.7188C13.4375 9 14.0625 8.46875 14.1875 7.75L14.4062 6.5H15.5C15.5625 6.5 15.6562 6.5 15.7188 6.46875C15.9062 7.125 16 7.8125 16 8.5ZM8 0.5C11.3438 0.5 14.2188 2.59375 15.4062 5.5H14.375C14.1875 4.9375 13.625 4.5 12.9688 4.5H10C9.5625 4.5 9.15625 4.71875 8.875 5H7.09375C6.8125 4.71875 6.40625 4.5 5.96875 4.5H3C2.34375 4.5 1.8125 4.9375 1.59375 5.5H0.5625C1.75 2.59375 4.625 0.5 8 0.5ZM5.125 11.1875C4.9375 10.9688 4.625 10.9688 4.40625 11.125C4.1875 11.3125 4.1875 11.625 4.34375 11.8438C5.0625 12.6562 6.25 13.5 8 13.5C9.71875 13.5 10.9062 12.6562 11.625 11.8438C11.7812 11.625 11.7812 11.3125 11.5625 11.125C11.3438 10.9688 11.0312 10.9688 10.8438 11.1875C10.3125 11.8438 9.34375 12.5 8 12.5C6.625 12.5 5.6875 11.8438 5.125 11.1875Z"
          fill="#C9A2FF"/>
</svg>
