<svg width="16" height="16" viewBox="0 0 16 16" fill="none" xmlns="http://www.w3.org/2000/svg">
    <path d="M16 8C16 12.4375 12.4062 16 8 16C3.5625 16 0 12.4375 0 8C0 7.3125 0.09375 6.625 0.25 5.96875C0.3125 6 0.40625 6 0.5 6H1.5625L1.78125 7.25C1.90625 7.96875 2.53125 8.5 3.25 8.5H5.71875C6.4375 8.5 7.0625 7.96875 7.1875 7.25L7.4375 5.75C7.46875 5.6875 7.46875 5.59375 7.46875 5.5H8.5C8.5 5.59375 8.5 5.6875 8.53125 5.75L8.78125 7.25C8.90625 7.96875 9.53125 8.5 10.25 8.5H12.7188C13.4375 8.5 14.0625 7.96875 14.1875 7.25L14.4062 6H15.5C15.5625 6 15.6562 6 15.7188 5.96875C15.9062 6.625 16 7.3125 16 8ZM8 0C11.3438 0 14.2188 2.09375 15.4062 5H14.375C14.1875 4.4375 13.625 4 12.9688 4H10C9.5625 4 9.15625 4.21875 8.875 4.5H7.09375C6.8125 4.21875 6.40625 4 5.96875 4H3C2.34375 4 1.8125 4.4375 1.59375 5H0.5625C1.75 2.09375 4.625 0 8 0ZM5.125 10.6875C4.9375 10.4688 4.625 10.4688 4.40625 10.625C4.1875 10.8125 4.1875 11.125 4.34375 11.3438C5.0625 12.1562 6.25 13 8 13C9.71875 13 10.9062 12.1562 11.625 11.3438C11.7812 11.125 11.7812 10.8125 11.5625 10.625C11.3438 10.4688 11.0312 10.4688 10.8438 10.6875C10.3125 11.3438 9.34375 12 8 12C6.625 12 5.6875 11.3438 5.125 10.6875Z" fill="#343434"/>
</svg>
