<svg width="16" height="16" viewBox="0 0 16 16" fill="none" xmlns="http://www.w3.org/2000/svg">
<path d="M14.75 8.5625L9.25 13.8125C8.9375 14.0938 8.46875 14.0938 8.1875 13.7812C7.90625 13.4688 7.90625 13 8.21875 12.7188L12.375 8.75H1.75C1.3125 8.75 1 8.4375 1 8C1 7.59375 1.3125 7.25 1.75 7.25H12.375L8.21875 3.3125C7.90625 3.03125 7.90625 2.53125 8.1875 2.25C8.46875 1.9375 8.96875 1.9375 9.25 2.21875L14.75 7.46875C14.9062 7.625 15 7.8125 15 8C15 8.21875 14.9062 8.40625 14.75 8.5625Z" fill="white"/>
</svg>
