<svg width="11" height="13" viewBox="0 0 11 13" fill="none" xmlns="http://www.w3.org/2000/svg">
<path d="M5.96484 0.343628L10.5586 5.15613C10.8047 5.42957 10.8047 5.83972 10.5312 6.08582C10.2578 6.33191 9.84766 6.33191 9.60156 6.05847L6.15625 2.42175V11.7186C6.15625 12.1014 5.85547 12.3749 5.5 12.3749C5.11719 12.3749 4.84375 12.1014 4.84375 11.7186V2.42175L1.37109 6.05847C1.125 6.33191 0.714844 6.33191 0.441406 6.08582C0.167969 5.83972 0.167969 5.40222 0.414062 5.15613L5.00781 0.343628C5.14453 0.206909 5.30859 0.124878 5.5 0.124878C5.66406 0.124878 5.82812 0.206909 5.96484 0.343628Z" fill="#2C2C2C"/>
</svg>
