<svg width="11" height="17" viewBox="0 0 11 17" fill="none" xmlns="http://www.w3.org/2000/svg">
<path d="M5.00781 14.3342L0.414062 9.52173C0.167969 9.24829 0.167969 8.83813 0.441406 8.59204C0.714844 8.34595 1.125 8.34595 1.37109 8.61938L4.84375 12.2561V2.93188C4.84375 2.57642 5.11719 2.27563 5.5 2.27563C5.85547 2.27563 6.15625 2.57642 6.15625 2.93188V12.2561L9.60156 8.61938C9.84766 8.34595 10.2852 8.34595 10.5312 8.59204C10.8047 8.83813 10.8047 9.24829 10.5586 9.52173L5.96484 14.3342C5.82812 14.4709 5.66406 14.5256 5.5 14.5256C5.30859 14.5256 5.14453 14.4709 5.00781 14.3342Z" fill="#2C2C2C"/>
</svg>
