<svg width="16" height="17" viewBox="0 0 16 17" fill="none" xmlns="http://www.w3.org/2000/svg">
    <path d="M3.2 0.503418H0V3.70342H3.2V0.503418Z" fill="white"/>
    <path d="M9.6 0.663788C9.10736 0.563609 8.60639 0.509916 8.1037 0.503418H5.2V3.70342H8.04445C8.9938 3.70342 9.92183 3.98493 10.7112 4.51236C11.5005 5.03979 12.1158 5.78945 12.4791 6.66654C12.8424 7.54362 12.9374 8.50874 12.7522 9.43985C12.567 10.371 12.1098 11.2262 11.4386 11.8975C10.7673 12.5688 9.91199 13.026 8.98088 13.2112C8.04977 13.3964 7.08465 13.3013 6.20756 12.938C5.33048 12.5747 4.58082 11.9595 4.05339 11.1702C3.52596 10.3808 3.24445 9.45277 3.24445 8.50342V5.70342H0.0444446V8.50342C0.0440559 9.05593 0.100777 9.60701 0.213704 10.1479C0.965186 13.7449 4.13259 16.4545 7.94074 16.5034H8.1037C12.4741 16.4479 16 12.8875 16 8.50342C16 4.63305 13.2515 1.4049 9.6 0.663788Z" fill="white"/>
    <path d="M7.58458 11.2955C7.14524 11.2299 6.72757 11.0616 6.36556 10.8042C5.99807 10.5435 5.69842 10.1986 5.49176 9.7983C5.28509 9.39798 5.17742 8.95394 5.17778 8.50342V5.68194H8C8.44421 5.68177 8.88219 5.78645 9.2783 5.98748C9.67442 6.18851 10.0175 6.48021 10.2796 6.83884C10.5417 7.19747 10.7155 7.61291 10.7867 8.05136C10.858 8.48981 10.8248 8.9389 10.6897 9.36208C10.5547 9.78527 10.3217 10.1706 10.0096 10.4867C9.69759 10.8029 9.31532 11.0409 8.89393 11.1814C8.47254 11.322 8.02392 11.361 7.58458 11.2955Z" fill="white"/>
</svg>
