<svg width="78" height="77" viewBox="0 0 78 77" fill="none" xmlns="http://www.w3.org/2000/svg">
    <rect width="78" height="77" rx="12" fill="#393939"/>
    <path d="M30.7236 32.0577V41.8187C30.7236 47.2102 35.0837 51.5806 40.4621 51.5806C45.8405 51.5806 50.2002 47.2102 50.2002 41.8187C50.2002 36.4275 45.8405 32.0571 40.4621 32.0571C40.4501 32.0571 40.4384 32.0581 40.4264 32.0581V32.0577H30.7236Z" fill="#FB8A61"/>
    <path d="M41.9979 11H38.0729H30.7227V22.2943H40.4254V22.2952C40.4374 22.2952 40.4492 22.2943 40.4612 22.2943C51.2176 22.2943 59.938 31.0348 59.938 41.8177C59.938 52.6004 51.2176 61.3409 40.4612 61.3409C29.7044 61.3409 20.984 52.6004 20.984 41.8177V32.0565H10V40.9895H10.0717C10.085 57.5663 23.4951 71 40.0354 71C56.584 71 70 57.5528 70 40.9645C70 25.0375 57.631 12.0143 41.9979 11Z" fill="#FB8A61"/>
    <path d="M20.9487 11.0029H10.0645V22.3799H20.9487V11.0029Z" fill="#FB8A61"/>
</svg>
