<svg width="101" height="25" viewBox="0 0 101 25" fill="none" xmlns="http://www.w3.org/2000/svg">
    <path d="M6.99756 9.50753V12.7737C6.99756 14.5778 8.46964 16.0402 10.2856 16.0402C12.1015 16.0402 13.5735 14.5778 13.5735 12.7737C13.5735 10.9697 12.1015 9.50732 10.2856 9.50732C10.2815 9.50732 10.2776 9.50763 10.2735 9.50763V9.50753H6.99756Z" fill="#FB8A61"/>
    <path d="M10.8035 2.46143H9.47828H6.99664V6.2407H10.2726V6.24101C10.2766 6.24101 10.2806 6.2407 10.2846 6.2407C13.9164 6.2407 16.8606 9.16543 16.8606 12.7736C16.8606 16.3817 13.9164 19.3064 10.2846 19.3064C6.65281 19.3064 3.70854 16.3817 3.70854 12.7736V9.50731H0V12.4965H0.0242177C0.0286871 18.0434 4.55636 22.5385 10.1409 22.5385C15.7282 22.5385 20.2579 18.0388 20.2579 12.4881C20.2579 7.15865 16.0817 2.80083 10.8035 2.46143Z" fill="#FB8A61"/>
    <path d="M3.69683 2.4624H0.0219727V6.26935H3.69683V2.4624Z" fill="#FB8A61"/>
    <path d="M26.8934 20V6.2941H32.5981C35.3578 6.2941 37.0247 7.73877 37.0247 10.091C37.0247 11.5542 36.3579 12.6284 35.117 13.1656C36.469 13.6101 37.1914 14.6658 37.1914 16.2216C37.1914 18.6479 35.5615 20 32.5981 20H26.8934ZM32.2832 8.92415H29.8939V11.9061H32.2832C33.3574 11.9061 33.9501 11.369 33.9501 10.3873C33.9501 9.42423 33.376 8.92415 32.2832 8.92415ZM32.4314 14.425H29.8939V17.3699H32.4314C33.5427 17.3699 34.1168 16.8699 34.1168 15.8512C34.1168 14.9251 33.5241 14.425 32.4314 14.425ZM45.2304 10.7393V13.4249H44.3229C42.693 13.4249 41.7114 14.1472 41.7114 15.9808V20H38.859V10.7578H41.5447L41.6928 12.1284C42.0818 11.2208 42.8967 10.6096 44.1377 10.6096C44.4711 10.6096 44.8415 10.6466 45.2304 10.7393ZM48.0804 9.29458C47.1729 9.29458 46.4505 8.57224 46.4505 7.66469C46.4505 6.75714 47.1729 6.05332 48.0804 6.05332C48.9695 6.05332 49.6918 6.75714 49.6918 7.66469C49.6918 8.57224 48.9695 9.29458 48.0804 9.29458ZM46.6728 20V10.7393H49.5251V20H46.6728ZM51.2019 15.2029C51.2019 12.3877 53.0355 10.4244 55.647 10.4244C56.9065 10.4244 57.9067 10.9059 58.4067 11.6653L58.5549 10.7393H61.2405V19.4073C61.2405 22.7227 59.3328 24.723 56.1656 24.723C53.3319 24.723 51.4241 23.1116 51.1648 20.4816H54.0542C54.1098 21.5188 54.8877 22.13 56.1471 22.13C57.5177 22.13 58.3882 21.315 58.3882 20V18.7961C57.8326 19.4629 56.7954 19.8889 55.5915 19.8889C52.9985 19.8889 51.2019 17.9812 51.2019 15.2029ZM54.0727 15.1288C54.0727 16.4624 54.9617 17.407 56.2212 17.407C57.5177 17.407 58.3882 16.4994 58.3882 15.1288C58.3882 13.7768 57.5177 12.9063 56.2027 12.9063C54.9432 12.9063 54.0727 13.8138 54.0727 15.1288ZM66.2379 20H63.3855V6.0348H66.2564V11.7024C66.8305 10.9059 67.8863 10.4429 69.0902 10.4429C71.2942 10.4429 72.5722 11.8505 72.5722 14.2769V20H69.7199V14.9622C69.7199 13.7953 69.0716 13.0359 68.09 13.0359C66.9602 13.0359 66.2379 13.7768 66.2379 14.9251V20ZM78.3592 20H75.5068V13.11H73.7473V10.7393H75.5068V7.86842H78.3592V10.7393H80.1187V13.11H78.3592V20ZM84.753 6.2941V20H81.7525V6.2941H84.753ZM92.984 20H87.6128V6.2941H92.7988C96.818 6.2941 99.6147 9.10936 99.6147 13.1841C99.6147 17.1847 96.8921 20 92.984 20ZM92.5025 9.07232H90.6133V17.2218H92.6877C95.0585 17.2218 96.4476 15.7215 96.4476 13.1841C96.4476 10.5911 94.9844 9.07232 92.5025 9.07232Z" fill="#FB8A61"/>
</svg>
