<svg width="20" height="20" viewBox="0 0 20 20" fill="none" xmlns="http://www.w3.org/2000/svg">
<path d="M15.9766 5.35156L11.2891 10.0391L15.9375 14.6875C16.3281 15.0391 16.3281 15.625 15.9375 15.9766C15.5859 16.3672 15 16.3672 14.6484 15.9766L9.96094 11.3281L5.3125 15.9766C4.96094 16.3672 4.375 16.3672 4.02344 15.9766C3.63281 15.625 3.63281 15.0391 4.02344 14.6484L8.67188 10L4.02344 5.35156C3.63281 5 3.63281 4.41406 4.02344 4.02344C4.375 3.67188 4.96094 3.67188 5.35156 4.02344L10 8.71094L14.6484 4.0625C15 3.67188 15.5859 3.67188 15.9766 4.0625C16.3281 4.41406 16.3281 5 15.9766 5.35156Z" fill="#2C2C2C"/>
</svg>
