<svg width="22" height="20" viewBox="0 0 22 20" fill="none" xmlns="http://www.w3.org/2000/svg">
    <path d="M9.16406 6.83594L11 8.67188L12.8359 6.83594C13.1875 6.48438 13.7734 6.48438 14.125 6.83594C14.5156 7.22656 14.5156 7.8125 14.125 8.16406L12.2891 10L14.125 11.8359C14.5156 12.2266 14.5156 12.8125 14.125 13.1641C13.7734 13.5547 13.1875 13.5547 12.8359 13.1641L11 11.3281L9.16406 13.1641C8.77344 13.5547 8.1875 13.5547 7.83594 13.1641C7.44531 12.8125 7.44531 12.2266 7.83594 11.8359L9.67188 10L7.83594 8.16406C7.44531 7.8125 7.44531 7.22656 7.83594 6.83594C8.1875 6.48438 8.77344 6.48438 9.16406 6.83594Z" fill="#DA6A6A"/>
    <path opacity="0.4" d="M11 20C7.40625 20 4.125 18.125 2.32812 15C0.53125 11.9141 0.53125 8.125 2.32812 5C4.125 1.91406 7.40625 0 11 0C14.5547 0 17.8359 1.91406 19.6328 5C21.4297 8.125 21.4297 11.9141 19.6328 15C17.8359 18.125 14.5547 20 11 20ZM7.83594 6.83594C7.44531 7.22656 7.44531 7.8125 7.83594 8.16406L9.67188 10L7.83594 11.8359C7.44531 12.2266 7.44531 12.8125 7.83594 13.1641C8.1875 13.5547 8.77344 13.5547 9.125 13.1641L10.9609 11.3281L12.7969 13.1641C13.1875 13.5547 13.7734 13.5547 14.125 13.1641C14.5156 12.8125 14.5156 12.2266 14.125 11.8359L12.2891 10L14.125 8.16406C14.5156 7.8125 14.5156 7.22656 14.125 6.83594C13.7734 6.48438 13.1875 6.48438 12.7969 6.83594L10.9609 8.67188L9.125 6.83594C8.77344 6.48438 8.1875 6.48438 7.83594 6.83594Z" fill="#DA6A6A"/>
</svg>
