<svg width="24" height="24" viewBox="0 0 24 24" fill="none" xmlns="http://www.w3.org/2000/svg">
<path d="M19.5 17H12C10.5938 17 9.5 15.9062 9.5 14.5V4.5C9.5 3.13281 10.5938 2 12 2H17.4688C17.9375 2 18.4453 2.23438 18.7969 2.58594L21.4141 5.20312C21.7656 5.55469 22 6.0625 22 6.53125V14.5C22 15.9062 20.8672 17 19.5 17ZM4.5 7H8.25V8.875H4.5C4.14844 8.875 3.875 9.1875 3.875 9.5V19.5C3.875 19.8516 4.14844 20.125 4.5 20.125H12C12.3125 20.125 12.625 19.8516 12.625 19.5V18.25H14.5V19.5C14.5 20.9062 13.3672 22 12 22H4.5C3.09375 22 2 20.9062 2 19.5V9.5C2 8.13281 3.09375 7 4.5 7Z" fill="white"/>
</svg>
