<svg width="45" height="36" viewBox="0 0 45 36" fill="none" xmlns="http://www.w3.org/2000/svg">
    <path d="M36.9043 5.26413C36.8931 5.24243 36.8746 5.22542 36.852 5.21615C34.2388 4.01722 31.4812 3.16229 28.6482 2.67275C28.6224 2.66797 28.5958 2.67142 28.5722 2.68262C28.5485 2.69381 28.529 2.71219 28.5164 2.73513C28.1409 3.41665 27.8 4.1167 27.4951 4.83258C24.4412 4.369 21.3348 4.369 18.2809 4.83258C17.974 4.11488 17.6276 3.41466 17.2435 2.73513C17.2303 2.71269 17.2107 2.69474 17.1872 2.68361C17.1637 2.67249 17.1373 2.6687 17.1116 2.67275C14.2783 3.16126 11.5205 4.01626 8.90771 5.21622C8.88534 5.2257 8.86647 5.24189 8.8537 5.26256C3.62864 13.0655 2.1973 20.6766 2.89946 28.1934C2.90144 28.2118 2.9071 28.2297 2.91611 28.2459C2.92511 28.2621 2.93729 28.2763 2.9519 28.2877C5.9944 30.5404 9.39748 32.2599 13.0159 33.3729C13.0414 33.3805 13.0686 33.3802 13.0939 33.3719C13.1192 33.3636 13.1413 33.3478 13.1573 33.3266C13.9345 32.2691 14.6231 31.1494 15.2162 29.9787C15.2243 29.9627 15.229 29.945 15.2298 29.9271C15.2307 29.9091 15.2277 29.8911 15.2211 29.8743C15.2145 29.8576 15.2044 29.8424 15.1915 29.8298C15.1787 29.8172 15.1632 29.8075 15.1463 29.8013C14.0604 29.3858 13.0091 28.885 12.0023 28.3034C11.9841 28.2927 11.9687 28.2776 11.9576 28.2595C11.9465 28.2414 11.9401 28.2209 11.9388 28.1997C11.9376 28.1785 11.9416 28.1573 11.9504 28.1381C11.9593 28.1188 11.9728 28.102 11.9897 28.0892C12.2009 27.9309 12.4123 27.7662 12.614 27.6C12.632 27.5852 12.6536 27.5757 12.6767 27.5726C12.6997 27.5695 12.7231 27.5729 12.7443 27.5824C19.3402 30.5927 26.4812 30.5927 32.9991 27.5824C33.0203 27.5723 33.044 27.5685 33.0673 27.5713C33.0907 27.5741 33.1128 27.5835 33.131 27.5984C33.3328 27.7647 33.5441 27.9309 33.7569 28.0892C33.7739 28.1019 33.7875 28.1186 33.7965 28.1378C33.8055 28.157 33.8096 28.1781 33.8085 28.1993C33.8074 28.2204 33.8011 28.241 33.7902 28.2592C33.7793 28.2774 33.764 28.2926 33.7458 28.3034C32.7413 28.8899 31.6891 29.3904 30.6003 29.7997C30.5834 29.8062 30.5681 29.8161 30.5552 29.8289C30.5424 29.8417 30.5325 29.857 30.526 29.8739C30.5195 29.8908 30.5167 29.9089 30.5177 29.9269C30.5187 29.945 30.5235 29.9626 30.5318 29.9787C31.1348 31.1429 31.8224 32.2612 32.5891 33.3247C32.6046 33.3465 32.6266 33.3629 32.652 33.3715C32.6774 33.3801 32.7048 33.3805 32.7305 33.3727C36.3554 32.2635 39.7644 30.5438 42.8107 28.2877C42.8256 28.2768 42.8379 28.263 42.8469 28.247C42.856 28.231 42.8615 28.2133 42.8632 28.195C43.7038 19.5047 41.4558 11.956 36.9043 5.26413ZM16.2012 23.6164C14.2154 23.6164 12.5791 21.7941 12.5791 19.556C12.5791 17.3178 14.1836 15.4953 16.2012 15.4953C18.2346 15.4953 19.855 17.3337 19.8233 19.5558C19.8233 21.7941 18.2187 23.6164 16.2012 23.6164ZM29.5934 23.6164C27.6076 23.6164 25.9713 21.7941 25.9713 19.556C25.9713 17.3178 27.5759 15.4953 29.5934 15.4953C31.6269 15.4953 33.2473 17.3337 33.2156 19.5558C33.2156 21.7941 31.6269 23.6164 29.5934 23.6164Z"
          fill="white"/>
</svg>
