<svg width="22" height="22" viewBox="0 0 22 22" fill="none" xmlns="http://www.w3.org/2000/svg">
    <path d="M17.9141 9.16406L8.10938 18.9688C7.875 19.2031 7.52344 19.3984 7.17188 19.5156L2.17188 21C1.85938 21.0781 1.50781 21 1.27344 20.7266C1 20.4922 0.921875 20.1406 1.03906 19.8281L2.48438 14.8281C2.60156 14.4766 2.79688 14.125 3.03125 13.8906L12.8359 4.08594L17.9141 9.16406Z" fill="white"/>
    <path opacity="0.4" d="M15.1406 1.78125C16.1172 0.804688 17.7188 0.804688 18.6953 1.78125L20.2188 3.30469C21.1953 4.28125 21.1953 5.88281 20.2188 6.85938L17.9141 9.16406L12.8359 4.08594L15.1406 1.78125Z" fill="white"/>
</svg>
