<svg width="34" height="32" viewBox="0 0 34 32" fill="none" xmlns="http://www.w3.org/2000/svg">
    <path d="M22.6719 22.4688H22.7188L20.5625 20.3594L14.1406 13.9375L12.0312 11.8281L17.0938 6.71875C18.2656 5.54688 20.1875 5.54688 21.3594 6.71875L27.7812 13.1406C28.9531 14.3125 28.9531 16.2344 27.7812 17.4062L22.6719 22.4688Z" fill="white"/>
    <path d="M22.6719 22.4688H22.7188L21.6406 23.5H27.5C28.2969 23.5 29 24.2031 29 25C29 25.8438 28.2969 26.5 27.5 26.5H17.4219H17H12.0312C11.2344 26.5 10.4844 26.2188 9.92188 25.6562L6.17188 21.9062C5 20.7344 5 18.8125 6.17188 17.6406L12.0312 11.7812L14.1406 13.9375L8.28125 19.75L12.0312 23.5H17H17.4219L20.5625 20.3594L22.6719 22.4688Z" fill="white"/>
</svg>
