<svg width="24" height="24" viewBox="0 0 24 24" fill="none" xmlns="http://www.w3.org/2000/svg">
    <rect width="24" height="24" rx="4" fill="#72BF83"/>
    <rect width="14" height="14" transform="translate(5 5)" fill="#72BF83"/>
    <path d="M14.8984 5.29688C15.582 4.61328 16.7031 4.61328 17.3867 5.29688L18.4531 6.36328C19.1367 7.04688 19.1367 8.16797 18.4531 8.85156L17.1406 10.1641L13.5859 6.60938L14.8984 5.29688ZM12.957 7.23828L16.5117 10.793L10.1406 17.1641C9.86719 17.4375 9.51172 17.6562 9.12891 17.7656L5.82031 18.75C5.60156 18.8047 5.35547 18.75 5.19141 18.5586C5 18.3945 4.94531 18.1484 5.02734 17.9297L5.98438 14.6211C6.09375 14.2383 6.3125 13.8828 6.58594 13.6094L12.957 7.23828Z" fill="white"/>
</svg>
