<svg width="32" height="37" viewBox="0 0 32 37" fill="none" xmlns="http://www.w3.org/2000/svg">
    <path d="M6.98744 0.567867H27.2097H29.4566C30.6503 0.567867 31.7035 1.62111 31.7035 2.81478V25.2839C31.7035 26.5478 30.6503 27.5308 29.4566 27.5308V32.0247C30.6503 32.0247 31.7035 33.0779 31.7035 34.2716C31.7035 35.5355 30.6503 36.5185 29.4566 36.5185H27.2097H6.98744C3.26599 36.5185 0.246702 33.4992 0.246702 29.7777V7.30861C0.246702 3.58716 3.26599 0.567867 6.98744 0.567867ZM6.98744 27.5308C5.72355 27.5308 4.74053 28.5841 4.74053 29.7777C4.74053 31.0416 5.72355 32.0247 6.98744 32.0247H24.9628V27.5308H6.98744ZM9.23436 10.679C9.23436 11.3109 9.72587 11.8024 10.3578 11.8024H23.8393C24.401 11.8024 24.9628 11.3109 24.9628 10.679C24.9628 10.1172 24.401 9.55552 23.8393 9.55552H10.3578C9.72587 9.55552 9.23436 10.1172 9.23436 10.679ZM10.3578 14.0493C9.72587 14.0493 9.23436 14.6111 9.23436 15.1728C9.23436 15.8048 9.72587 16.2963 10.3578 16.2963H23.8393C24.401 16.2963 24.9628 15.8048 24.9628 15.1728C24.9628 14.6111 24.401 14.0493 23.8393 14.0493H10.3578Z"
          fill="white"/>
</svg>
