<svg width="18" height="17" viewBox="0 0 18 17" fill="none" xmlns="http://www.w3.org/2000/svg">
    <path d="M9 16.5C6.125 16.5 3.5 15 2.0625 12.5C0.625 10.0312 0.625 7 2.0625 4.5C3.5 2.03125 6.125 0.5 9 0.5C11.8438 0.5 14.4688 2.03125 15.9062 4.5C17.3438 7 17.3438 10.0312 15.9062 12.5C14.4688 15 11.8438 16.5 9 16.5ZM6.125 10.6875C5.9375 10.4688 5.625 10.4688 5.40625 10.625C5.1875 10.8125 5.1875 11.125 5.34375 11.3438C6.0625 12.1562 7.25 13 9 13C10.7188 13 11.9062 12.1562 12.625 11.3438C12.7812 11.125 12.7812 10.8125 12.5625 10.625C12.3438 10.4688 12.0312 10.4688 11.8438 10.6875C11.3125 11.3438 10.3438 12 9 12C7.625 12 6.6875 11.3438 6.125 10.6875ZM5.5 7C5.5 7.5625 5.9375 8 6.5 8C7.0625 8 7.5 7.5625 7.5 7C7.5 6.46875 7.0625 6 6.5 6C5.9375 6 5.5 6.46875 5.5 7ZM11.5 6C10.9375 6 10.5 6.46875 10.5 7C10.5 7.5625 10.9375 8 11.5 8C12.0625 8 12.5 7.5625 12.5 7C12.5 6.46875 12.0625 6 11.5 6Z" fill="#81CC91"/>
</svg>
