<svg width="20" height="20" viewBox="0 0 20 20" fill="none" xmlns="http://www.w3.org/2000/svg">
    <path d="M1.25 10C1.25 8.63281 2.34375 7.5 3.75 7.5H16.25C17.6172 7.5 18.75 8.63281 18.75 10V17.5C18.75 18.9062 17.6172 20 16.25 20H3.75C2.34375 20 1.25 18.9062 1.25 17.5V10Z" fill="#848484"/>
    <path opacity="0.4" d="M10 2.5C8.24219 2.5 6.875 3.90625 6.875 5.625V7.5H4.375V5.625C4.375 2.53906 6.875 0 10 0C13.0859 0 15.625 2.53906 15.625 5.625V7.5H13.125V5.625C13.125 3.90625 11.7188 2.5 10 2.5Z" fill="#848484"/>
</svg>
