<svg width="32" height="32" viewBox="0 0 32 32" fill="none" xmlns="http://www.w3.org/2000/svg">
    <path d="M9.5 7C9 7 8.5 6.9375 8.0625 6.75C8.6875 2.9375 12 0 16 0C19.6875 0 22.8125 2.5625 23.75 6H21.5C20.0625 6 18.8125 5.3125 18.0625 4.1875C17.0625 5.875 15.125 7 13 7H9.5ZM15.0625 22.5L13.875 20.5625C13.5 19.875 13.9375 19 14.75 19H16H17.1875C18 19 18.4375 19.875 18.0625 20.5625L16.875 22.5L19 30.25L21.4375 20.125C26.25 20.875 30 25.0625 30 30.125C30 31.1875 29.125 32 28.0625 32H18.5625H13.375H3.875C2.8125 32 2 31.1875 2 30.125C2 25.0625 5.6875 20.875 10.5 20.125L12.9375 30.25L15.0625 22.5Z" fill="#585858"/>
    <path opacity="0.4" d="M13 7C15.125 7 17.0625 5.875 18.0625 4.1875C18.8125 5.3125 20.0625 6 21.5 6H23.75C23.875 6.6875 24 7.3125 24 8C24 12.4375 20.375 16 16 16C11.5625 16 8 12.4375 8 8C8 7.5625 8 7.1875 8.0625 6.75C8.5 6.9375 9 7 9.5 7H13Z" fill="#585858"/>
</svg>
