<svg width="20" height="20" viewBox="0 0 20 20" fill="none" xmlns="http://www.w3.org/2000/svg">
<path d="M5.9375 4.375C5.625 4.375 5.3125 4.33594 5.03906 4.21875C5.42969 1.83594 7.5 0 10 0C12.3047 0 14.2578 1.60156 14.8438 3.75H13.4375C12.5391 3.75 11.7578 3.32031 11.2891 2.61719C10.6641 3.67188 9.45312 4.375 8.125 4.375H5.9375ZM9.41406 14.0625L8.67188 12.8516C8.4375 12.4219 8.71094 11.875 9.21875 11.875H10H10.7422C11.25 11.875 11.5234 12.4219 11.2891 12.8516L10.5469 14.0625L11.875 18.9062L13.3984 12.5781C16.4062 13.0469 18.75 15.6641 18.75 18.8281C18.75 19.4922 18.2031 20 17.5391 20H11.6016H8.35938H2.42188C1.75781 20 1.25 19.4922 1.25 18.8281C1.25 15.6641 3.55469 13.0469 6.5625 12.5781L8.08594 18.9062L9.41406 14.0625Z" fill="#2C2C2C"/>
<path opacity="0.4" d="M8.125 4.375C9.45312 4.375 10.6641 3.67188 11.2891 2.61719C11.7578 3.32031 12.5391 3.75 13.4375 3.75H14.8438C14.9219 4.17969 15 4.57031 15 5C15 7.77344 12.7344 10 10 10C7.22656 10 5 7.77344 5 5C5 4.72656 5 4.49219 5.03906 4.21875C5.3125 4.33594 5.625 4.375 5.9375 4.375H8.125Z" fill="#2C2C2C"/>
</svg>
