<svg width="24" height="24" viewBox="0 0 24 24" fill="none" xmlns="http://www.w3.org/2000/svg">
    <path d="M12 16.875C12.9375 16.875 13.7812 17.3906 14.25 18.1875C14.7188 19.0312 14.7188 20.0156 14.25 20.8125C13.7812 21.6562 12.9375 22.125 12 22.125C11.0156 22.125 10.1719 21.6562 9.70312 20.8125C9.23438 20.0156 9.23438 19.0312 9.70312 18.1875C10.1719 17.3906 11.0156 16.875 12 16.875ZM12 9.375C12.9375 9.375 13.7812 9.89062 14.25 10.6875C14.7188 11.5312 14.7188 12.5156 14.25 13.3125C13.7812 14.1562 12.9375 14.625 12 14.625C11.0156 14.625 10.1719 14.1562 9.70312 13.3125C9.23438 12.5156 9.23438 11.5312 9.70312 10.6875C10.1719 9.89062 11.0156 9.375 12 9.375ZM14.625 4.5C14.625 5.48438 14.1094 6.32812 13.3125 6.79688C12.4688 7.26562 11.4844 7.26562 10.6875 6.79688C9.84375 6.32812 9.375 5.48438 9.375 4.5C9.375 3.5625 9.84375 2.71875 10.6875 2.25C11.4844 1.78125 12.4688 1.78125 13.3125 2.25C14.1094 2.71875 14.625 3.5625 14.625 4.5Z"
          fill="white"/>
</svg>
