<svg width="41" height="33" viewBox="0 0 41 33" fill="none" xmlns="http://www.w3.org/2000/svg">
    <path opacity="0.4" d="M20.4375 0C21.3125 0 22.1875 0.625 22.375 1.5L27 18.4375L28.125 16.25C28.8125 14.875 30.1875 14 31.6875 14H38.5C39.5625 14 40.5 14.9375 40.5 16C40.5 17.125 39.5625 18 38.5 18H31.6875L28.25 24.9375C27.875 25.6875 27.125 26.125 26.25 26C25.4375 25.9375 24.75 25.375 24.5625 24.5625L20.6875 10.5L16.4375 30.4375C16.25 31.375 15.4375 32 14.5625 32C13.625 32.0625 12.8125 31.4375 12.5625 30.5625L8.9375 18H2.5C1.375 18 0.5 17.125 0.5 16C0.5 14.9375 1.375 14 2.5 14H8.9375C10.75 14 12.3125 15.1875 12.8125 16.9375L14.1875 21.75L18.5 1.625C18.6875 0.6875 19.5 0.0625 20.4375 0Z" fill="white"/>
</svg>
