<svg width="41" height="32" viewBox="0 0 41 32" fill="none" xmlns="http://www.w3.org/2000/svg">
    <path d="M32.5 10H24.5C23.375 10 22.5 9.125 22.5 8V0L32.5 10ZM25.5 19C25.5 20.125 25.1875 21.1875 24.625 22.0625L27.0625 24.5C27.625 25.0625 27.625 26 27.0625 26.625C26.4375 27.1875 25.5 27.1875 24.9375 26.625L22.5 24.1875C21.625 24.75 20.5625 25 19.5 25C16.1875 25 13.5 22.3125 13.5 19C13.5 15.6875 16.1875 13 19.5 13C22.8125 13 25.5 15.6875 25.5 19ZM19.5 22C20.5625 22 21.5 21.4375 22.0625 20.5C22.625 19.625 22.625 18.4375 22.0625 17.5C21.5 16.625 20.5625 16 19.5 16C18.375 16 17.4375 16.625 16.875 17.5C16.3125 18.4375 16.3125 19.625 16.875 20.5C17.4375 21.4375 18.375 22 19.5 22Z"
          fill="white"/>
    <path opacity="0.4"
          d="M8.5 4C8.5 1.8125 10.25 0 12.5 0H22.5V8C22.5 9.125 23.375 10 24.5 10H32.5V28C32.5 30.25 30.6875 32 28.5 32H12.5C10.25 32 8.5 30.25 8.5 28V4ZM25.5 19C25.5 15.6875 22.8125 13 19.5 13C16.1875 13 13.5 15.6875 13.5 19C13.5 22.3125 16.1875 25 19.5 25C20.5625 25 21.625 24.75 22.5 24.1875L24.9375 26.625C25.5 27.1875 26.4375 27.1875 27 26.625C27.625 26 27.625 25.0625 27 24.5L24.625 22.0625C25.1875 21.1875 25.4375 20.125 25.4375 19H25.5ZM19.5 16C20.5625 16 21.5 16.625 22.0625 17.5C22.625 18.4375 22.625 19.625 22.0625 20.5C21.5 21.4375 20.5625 22 19.5 22C18.375 22 17.4375 21.4375 16.875 20.5C16.3125 19.625 16.3125 18.4375 16.875 17.5C17.4375 16.625 18.375 16 19.5 16Z"
          fill="white"/>
</svg>
