<svg width="41" height="34" viewBox="0 0 41 34" fill="none" xmlns="http://www.w3.org/2000/svg">
    <path d="M33.5 21.0625C33.5 19.25 32.5 17.625 31 16.6875C29.4375 15.8125 27.5 15.8125 26 16.6875C24.4375 17.625 23.5 19.25 23.5 21.0625C23.5 22.8125 24.4375 24.5 26 25.375C27.5 26.25 29.4375 26.25 31 25.375C32.5 24.5 33.5 22.8125 33.5 21.0625ZM32.9375 27.625C31.6875 28.5 30.125 29.0625 28.5 29.0625C24.0625 29.0625 20.5 25.4375 20.5 21.0625C20.5 16.625 24.0625 13.0625 28.5 13.0625C32.875 13.0625 36.5 16.625 36.5 21.0625C36.5 22.6875 35.9375 24.25 35.0625 25.5L40.0625 30.5C40.625 31.0625 40.625 32 40.0625 32.625C39.4375 33.1875 38.5 33.1875 37.9375 32.625L32.9375 27.625Z"
          fill="white"/>
    <path opacity="0.4"
          d="M6.5 9C6.5 6.1875 8 3.5625 10.5 2.125C12.9375 0.6875 16 0.6875 18.5 2.125C20.9375 3.5625 22.5 6.1875 22.5 9C22.5 11.875 20.9375 14.5 18.5 15.9375C16 17.375 12.9375 17.375 10.5 15.9375C8 14.5 6.5 11.875 6.5 9ZM0.5 31.1875C0.5 25 5.4375 20 11.625 20H17.3125C17.75 20 18.125 20.0625 18.5 20.0625C18.5 20.375 18.5 20.6875 18.5 21C18.5 26.5625 22.9375 31 28.5 31C28.5 31.0625 28.5 31.125 28.5 31.1875C28.5 32.1875 27.625 33 26.625 33H2.3125C1.3125 33 0.5 32.1875 0.5 31.1875Z"
          fill="white"/>
</svg>
