<svg width="24" height="24" viewBox="0 0 24 24" fill="none" xmlns="http://www.w3.org/2000/svg">
<path d="M1.5 4.5C1.5 2.85938 2.8125 1.5 4.5 1.5H19.5C21.1406 1.5 22.5 2.85938 22.5 4.5V15H17.25C15.9844 15 15 16.0312 15 17.25V22.5H4.5C2.8125 22.5 1.5 21.1875 1.5 19.5V4.5ZM20.3438 16.5H22.5L21 18L18 21L16.5 22.5V20.3906V17.25C16.5 16.875 16.8281 16.5 17.25 16.5H20.3438ZM6.75 17.625C6.75 17.0156 6.23438 16.5 5.625 16.5C4.96875 16.5 4.5 17.0156 4.5 17.625C4.5 18.2812 4.96875 18.75 5.625 18.75C6.23438 18.75 6.75 18.2812 6.75 17.625ZM5.625 5.25C4.96875 5.25 4.5 5.76562 4.5 6.375C4.5 7.03125 4.96875 7.5 5.625 7.5C6.23438 7.5 6.75 7.03125 6.75 6.375C6.75 5.76562 6.23438 5.25 5.625 5.25ZM6.75 12C6.75 11.3906 6.23438 10.875 5.625 10.875C4.96875 10.875 4.5 11.3906 4.5 12C4.5 12.6562 4.96875 13.125 5.625 13.125C6.23438 13.125 6.75 12.6562 6.75 12Z" fill="#9D9D9D"/>
</svg>
