<svg width="32" height="33" viewBox="0 0 32 33" fill="none" xmlns="http://www.w3.org/2000/svg">
    <path d="M2 31.1875C2 25 6.9375 20 13.125 20H18.8125C25 20 30 25 30 31.1875C30 32.1875 29.125 33 28.125 33H3.8125C2.8125 33 2 32.1875 2 31.1875Z" fill="#C9A2FF"/>
    <path opacity="0.4" d="M8 9C8 6.1875 9.5 3.5625 12 2.125C14.4375 0.6875 17.5 0.6875 20 2.125C22.4375 3.5625 24 6.1875 24 9C24 11.875 22.4375 14.5 20 15.9375C17.5 17.375 14.4375 17.375 12 15.9375C9.5 14.5 8 11.875 8 9Z" fill="#C9A2FF"/>
</svg>
