<svg width="18" height="16" viewBox="0 0 18 16" fill="none" xmlns="http://www.w3.org/2000/svg">
    <path d="M6.5 7.5C5.9375 7.5 5.5 7.0625 5.5 6.5C5.5 5.96875 5.9375 5.5 6.5 5.5C7.0625 5.5 7.5 5.96875 7.5 6.5C7.5 7.0625 7.0625 7.5 6.5 7.5ZM11.5 7.5C10.9375 7.5 10.5 7.0625 10.5 6.5C10.5 5.96875 10.9375 5.5 11.5 5.5C12.0625 5.5 12.5 5.96875 12.5 6.5C12.5 7.0625 12.0625 7.5 11.5 7.5Z" fill="white"/>
    <path d="M9 16C6.125 16 3.5 14.5 2.0625 12C0.625 9.53125 0.625 6.5 2.0625 4C3.5 1.53125 6.125 0 9 0C11.8438 0 14.4688 1.53125 15.9062 4C17.3438 6.5 17.3438 9.53125 15.9062 12C14.4688 14.5 11.8438 16 9 16ZM6.5 5.5C5.9375 5.5 5.5 5.96875 5.5 6.5C5.5 7.0625 5.9375 7.5 6.5 7.5C7.0625 7.5 7.5 7.0625 7.5 6.5C7.5 5.96875 7.0625 5.5 6.5 5.5ZM10.5 6.5C10.5 7.0625 10.9375 7.5 11.5 7.5C12.0625 7.5 12.5 7.0625 12.5 6.5C12.5 5.96875 12.0625 5.5 11.5 5.5C10.9375 5.5 10.5 5.96875 10.5 6.5ZM6 10.5C5.71875 10.5 5.5 10.75 5.5 11C5.5 11.2812 5.71875 11.5 6 11.5H12C12.25 11.5 12.5 11.2812 12.5 11C12.5 10.75 12.25 10.5 12 10.5H6Z" fill="#343434"/>
</svg>
