<svg width="18" height="17" viewBox="0 0 18 17" fill="none" xmlns="http://www.w3.org/2000/svg">
    <path d="M6.5 8C5.9375 8 5.5 7.5625 5.5 7C5.5 6.46875 5.9375 6 6.5 6C7.0625 6 7.5 6.46875 7.5 7C7.5 7.5625 7.0625 8 6.5 8ZM11.5 8C10.9375 8 10.5 7.5625 10.5 7C10.5 6.46875 10.9375 6 11.5 6C12.0625 6 12.5 6.46875 12.5 7C12.5 7.5625 12.0625 8 11.5 8Z" fill="white"/>
    <path d="M9 16.5C6.125 16.5 3.5 15 2.0625 12.5C0.625 10.0312 0.625 7 2.0625 4.5C3.5 2.03125 6.125 0.5 9 0.5C11.8438 0.5 14.4688 2.03125 15.9062 4.5C17.3438 7 17.3438 10.0312 15.9062 12.5C14.4688 15 11.8438 16.5 9 16.5ZM6.5 6C5.9375 6 5.5 6.46875 5.5 7C5.5 7.5625 5.9375 8 6.5 8C7.0625 8 7.5 7.5625 7.5 7C7.5 6.46875 7.0625 6 6.5 6ZM10.5 7C10.5 7.5625 10.9375 8 11.5 8C12.0625 8 12.5 7.5625 12.5 7C12.5 6.46875 12.0625 6 11.5 6C10.9375 6 10.5 6.46875 10.5 7ZM6 11C5.71875 11 5.5 11.25 5.5 11.5C5.5 11.7812 5.71875 12 6 12H12C12.25 12 12.5 11.7812 12.5 11.5C12.5 11.25 12.25 11 12 11H6Z" fill="#585858"/>
</svg>
