<svg width="12" height="12" viewBox="0 0 12 12" fill="none" xmlns="http://www.w3.org/2000/svg">
    <path d="M10.8516 5.25H8.0625C7.82812 5.25 7.61719 5.13281 7.52344 4.92188C7.45312 4.71094 7.5 4.45312 7.66406 4.28906L8.625 3.32812C7.14844 1.89844 4.80469 1.89844 3.32812 3.35156C1.875 4.82812 1.875 7.19531 3.32812 8.67188C4.80469 10.125 7.17188 10.125 8.64844 8.67188C8.92969 8.36719 9.39844 8.36719 9.70312 8.67188C9.98438 8.95312 9.98438 9.42188 9.70312 9.72656C7.64062 11.7656 4.33594 11.7656 2.27344 9.72656C0.234375 7.66406 0.234375 4.35938 2.27344 2.29688C4.3125 0.257812 7.61719 0.257812 9.67969 2.27344L10.6641 1.28906C10.8047 1.14844 11.0625 1.10156 11.2734 1.17188C11.4844 1.26562 11.625 1.47656 11.625 1.6875V4.6875C11.625 5.01562 11.3672 5.25 11.0625 5.25H10.8516Z" fill="#DA6A6A"/>
</svg>
