<svg width="18" height="17" viewBox="0 0 18 17" fill="none" xmlns="http://www.w3.org/2000/svg">
    <path d="M4 7C4 6.75 4.21875 6.5 4.5 6.5H6.5C7.03125 6.5 7.5 6.96875 7.5 7.5C7.5 8.0625 7.03125 8.5 6.5 8.5C5.9375 8.5 5.5 8.0625 5.5 7.5H4.5C4.21875 7.5 4 7.28125 4 7ZM10 7C10 6.75 10.2188 6.5 10.5 6.5H12.5C13.0312 6.5 13.5 6.96875 13.5 7.5C13.5 8.0625 13.0312 8.5 12.5 8.5C11.9375 8.5 11.5 8.0625 11.5 7.5H10.5C10.2188 7.5 10 7.28125 10 7Z" fill="white"/>
    <path d="M9 16.5C6.125 16.5 3.5 15 2.0625 12.5C0.625 10.0312 0.625 7 2.0625 4.5C3.5 2.03125 6.125 0.5 9 0.5C11.8438 0.5 14.4688 2.03125 15.9062 4.5C17.3438 7 17.3438 10.0312 15.9062 12.5C14.4688 15 11.8438 16.5 9 16.5ZM10.875 12.8438C11.0625 13.0625 11.375 13.0625 11.5625 12.875C11.7812 12.6875 11.7812 12.375 11.5938 12.1875C11.0938 11.625 10.2188 11 9 11C7.75 11 6.875 11.625 6.375 12.1875C6.1875 12.375 6.1875 12.6875 6.40625 12.875C6.59375 13.0625 6.9375 13.0625 7.09375 12.8438C7.46875 12.4375 8.09375 12 9 12C9.875 12 10.5 12.4375 10.875 12.8438ZM4.5 6.5C4.21875 6.5 4 6.75 4 7C4 7.28125 4.21875 7.5 4.5 7.5H5.5C5.5 8.0625 5.9375 8.5 6.5 8.5C7.03125 8.5 7.5 8.0625 7.5 7.5C7.5 6.96875 7.03125 6.5 6.5 6.5H4.5ZM10 7C10 7.28125 10.2188 7.5 10.5 7.5H11.5C11.5 8.0625 11.9375 8.5 12.5 8.5C13.0312 8.5 13.5 8.0625 13.5 7.5C13.5 6.96875 13.0312 6.5 12.5 6.5H10.5C10.2188 6.5 10 6.75 10 7Z" fill="#D39090"/>
</svg>
