<svg width="17" height="17" viewBox="0 0 17 17" fill="none" xmlns="http://www.w3.org/2000/svg">
<path d="M11.5 6.99988C11.5 5.21863 10.5312 3.59363 9 2.68738C7.4375 1.78113 5.53125 1.78113 4 2.68738C2.4375 3.59363 1.5 5.21863 1.5 6.99988C1.5 8.81238 2.4375 10.4374 4 11.3436C5.53125 12.2499 7.4375 12.2499 9 11.3436C10.5312 10.4374 11.5 8.81238 11.5 6.99988ZM10.5312 12.1249C9.40625 12.9999 8 13.4999 6.5 13.4999C2.90625 13.4999 0 10.5936 0 6.99988C0 3.43738 2.90625 0.499878 6.5 0.499878C10.0625 0.499878 13 3.43738 13 6.99988C13 8.53113 12.4688 9.93738 11.5938 11.0624L15.7812 15.2186C16.0625 15.5311 16.0625 15.9999 15.7812 16.2811C15.4688 16.5936 15 16.5936 14.7188 16.2811L10.5312 12.1249Z" fill="#585858"/>
</svg>
