<svg width="18" height="18" viewBox="0 0 18 18" fill="none" xmlns="http://www.w3.org/2000/svg">
    <path d="M11.0967 16.5312C10.208 16.7021 9.35352 16.1211 9.14844 15.2324L9.08008 14.8223C8.875 13.6943 8.22559 12.6689 7.33691 11.9512L7.09766 11.7461C6.31152 11.1309 5.86719 10.208 5.86719 9.18262V8.32812V6.6875V5.38867C5.86719 4.29492 6.41406 3.26953 7.30273 2.6543L8.63574 1.7998C9.18262 1.42383 9.79785 1.21875 10.4473 1.21875H13.7969C14.6855 1.21875 15.4375 1.9707 15.4375 2.85938C15.4375 2.99609 15.4033 3.13281 15.3691 3.23535C16.0527 3.44043 16.5312 4.05566 16.5312 4.77344C16.5312 5.11523 16.4287 5.38867 16.292 5.62793C17.0439 5.79883 17.625 6.44824 17.625 7.23438C17.625 7.78125 17.3857 8.22559 17.0098 8.5332C17.5225 8.80664 17.8984 9.35352 17.8984 9.96875C17.8984 10.8916 17.1465 11.6094 16.2578 11.6094H11.3359C11.7803 12.4297 12.1221 13.2842 12.293 14.207L12.3955 14.583C12.5664 15.4717 11.9854 16.3262 11.0967 16.5312ZM1.49219 13.25C0.876953 13.25 0.398438 12.7715 0.398438 12.1562V4.5C0.398438 3.91895 0.876953 3.40625 1.49219 3.40625H3.67969C4.26074 3.40625 4.77344 3.91895 4.77344 4.5V12.1562C4.77344 12.7715 4.26074 13.25 3.67969 13.25H1.49219Z" fill="black"/>
</svg>
