<svg width="18" height="18" viewBox="0 0 18 18" fill="none" xmlns="http://www.w3.org/2000/svg">
    <path d="M11.0967 1.50293C11.9854 1.70801 12.5664 2.5625 12.3955 3.45117L12.293 3.82715C12.1221 4.75 11.7803 5.60449 11.3359 6.39062H16.2578C17.1465 6.39062 17.8984 7.14258 17.8984 8.03125C17.8984 8.68066 17.5225 9.22754 17.0098 9.50098C17.3857 9.80859 17.625 10.2529 17.625 10.7656C17.625 11.5859 17.0439 12.2354 16.292 12.4062C16.4287 12.6455 16.5312 12.9189 16.5312 13.2266C16.5312 13.9785 16.0527 14.5938 15.3691 14.7988C15.4033 14.9014 15.4375 15.0381 15.4375 15.1406C15.4375 16.0635 14.6855 16.7812 13.7969 16.7812H10.4473C9.79785 16.7812 9.18262 16.6104 8.63574 16.2344L7.30273 15.3799C6.41406 14.7646 5.86719 13.7393 5.86719 12.6455V11.3125V9.67188V8.85156C5.86719 7.82617 6.31152 6.90332 7.09766 6.28809L7.33691 6.08301C8.22559 5.33105 8.875 4.33984 9.08008 3.17773L9.14844 2.80176C9.35352 1.91309 10.208 1.33203 11.0967 1.50293ZM1.49219 6.9375H3.67969C4.26074 6.9375 4.77344 7.4502 4.77344 8.03125V15.6875C4.77344 16.3027 4.26074 16.7812 3.67969 16.7812H1.49219C0.876953 16.7812 0.398438 16.3027 0.398438 15.6875V8.03125C0.398438 7.4502 0.876953 6.9375 1.49219 6.9375Z" fill="white"/>
</svg>
