<svg width="19" height="18" viewBox="0 0 19 18" fill="none" xmlns="http://www.w3.org/2000/svg">
    <path d="M11.5068 1.50293C12.3955 1.70801 12.9766 2.5625 12.8057 3.45117L12.7031 3.82715C12.5322 4.75 12.1904 5.60449 11.7461 6.39062H16.668C17.5566 6.39062 18.3086 7.14258 18.3086 8.03125C18.3086 8.68066 17.9326 9.22754 17.4199 9.50098C17.7959 9.80859 18.0352 10.2529 18.0352 10.7656C18.0352 11.5859 17.4541 12.2354 16.7021 12.4062C16.8389 12.6455 16.9414 12.9189 16.9414 13.2266C16.9414 13.9785 16.4629 14.5938 15.7793 14.7988C15.8135 14.9014 15.8477 15.0381 15.8477 15.1406C15.8477 16.0635 15.0957 16.7812 14.207 16.7812H10.8574C10.208 16.7812 9.59277 16.6104 9.0459 16.2344L7.71289 15.3799C6.82422 14.7646 6.27734 13.7393 6.27734 12.6455V11.3125V9.67188V8.85156C6.27734 7.82617 6.72168 6.90332 7.50781 6.28809L7.74707 6.08301C8.63574 5.33105 9.28516 4.33984 9.49023 3.17773L9.55859 2.80176C9.76367 1.91309 10.6182 1.33203 11.5068 1.50293ZM1.90234 6.9375H4.08984C4.6709 6.9375 5.18359 7.4502 5.18359 8.03125V15.6875C5.18359 16.3027 4.6709 16.7812 4.08984 16.7812H1.90234C1.28711 16.7812 0.808594 16.3027 0.808594 15.6875V8.03125C0.808594 7.4502 1.28711 6.9375 1.90234 6.9375Z" fill="#2C2C2C"/>
</svg>
