<svg width="20" height="20" viewBox="0 0 20 20" fill="none" xmlns="http://www.w3.org/2000/svg">
<path d="M10.2344 0.0390625L16.1719 1.60156C16.4844 1.71875 16.7578 1.95312 16.8359 2.30469C16.9141 2.65625 16.7969 3.00781 16.5234 3.24219L15.5859 4.02344C15.5859 4.0625 15.5859 4.10156 15.5859 4.14062V4.96094C15.5859 5.39062 15.3906 5.78125 15 5.97656C14.0625 6.36719 12.3438 6.91406 9.96094 6.91406C7.61719 6.91406 5.89844 6.36719 4.96094 5.97656C4.57031 5.78125 4.375 5.39062 4.375 4.96094V4.14062C4.375 4.10156 4.375 4.0625 4.375 4.02344L3.4375 3.24219C3.16406 3.00781 3.04688 2.65625 3.125 2.30469C3.20312 1.95312 3.47656 1.67969 3.78906 1.60156L9.72656 0.0390625C9.88281 0 10.0781 0 10.2344 0.0390625ZM7.53906 2.85156C7.38281 3.16406 7.53906 3.55469 7.8125 3.71094L9.6875 4.64844C9.88281 4.72656 10.0781 4.72656 10.2734 4.64844L12.1484 3.71094C12.4609 3.55469 12.5781 3.16406 12.4219 2.85156C12.2656 2.53906 11.875 2.42188 11.5625 2.57812L10 3.39844L8.39844 2.57812C8.08594 2.42188 7.69531 2.53906 7.53906 2.85156ZM6.79688 13.8672L9.60938 15.9766C9.84375 16.1719 10.1172 16.1719 10.3516 15.9766L13.1641 13.8672C13.2812 13.7891 13.3594 13.75 13.4766 13.75C16.3672 13.75 18.75 16.1328 18.75 19.0234C18.75 19.5703 18.2812 20 17.7344 20H2.22656C1.67969 20 1.25 19.5703 1.25 19.0234C1.25 16.1328 3.59375 13.75 6.48438 13.75C6.60156 13.75 6.67969 13.7891 6.79688 13.8672ZM13.75 16.875C13.75 17.2266 14.0234 17.5 14.375 17.5H15.625C15.9375 17.5 16.25 17.2266 16.25 16.875C16.25 16.5625 15.9375 16.25 15.625 16.25H14.375C14.0234 16.25 13.75 16.5625 13.75 16.875Z" fill="#2C2C2C"/>
<path opacity="0.4" d="M5.19531 6.05469C6.67969 6.60156 8.32031 6.875 10 6.875C11.6797 6.875 13.2812 6.60156 14.7656 6.05469C14.9219 6.52344 15 6.99219 15 7.5C15 10.2734 12.7344 12.5 10 12.5C7.22656 12.5 5 10.2734 5 7.5C5 6.99219 5.07812 6.52344 5.19531 6.05469Z" fill="#2C2C2C"/>
</svg>
