<svg width="32" height="32" viewBox="0 0 32 32" fill="none" xmlns="http://www.w3.org/2000/svg">
    <path d="M16.375 0.0625L25.875 2.5625C26.375 2.75 26.8125 3.125 26.9375 3.6875C27.0625 4.25 26.875 4.8125 26.4375 5.1875L24.9375 6.4375C24.9375 6.5 24.9375 6.5625 24.9375 6.625V7.9375C24.9375 8.625 24.625 9.25 24 9.5625C22.5 10.1875 19.75 11.0625 15.9375 11.0625C12.1875 11.0625 9.4375 10.1875 7.9375 9.5625C7.3125 9.25 7 8.625 7 7.9375V6.625C7 6.5625 7 6.5 7 6.4375L5.5 5.1875C5.0625 4.8125 4.875 4.25 5 3.6875C5.125 3.125 5.5625 2.6875 6.0625 2.5625L15.5625 0.0625C15.8125 0 16.125 0 16.375 0.0625ZM12.0625 4.5625C11.8125 5.0625 12.0625 5.6875 12.5 5.9375L15.5 7.4375C15.8125 7.5625 16.125 7.5625 16.4375 7.4375L19.4375 5.9375C19.9375 5.6875 20.125 5.0625 19.875 4.5625C19.625 4.0625 19 3.875 18.5 4.125L16 5.4375L13.4375 4.125C12.9375 3.875 12.3125 4.0625 12.0625 4.5625ZM10.875 22.1875L15.375 25.5625C15.75 25.875 16.1875 25.875 16.5625 25.5625L21.0625 22.1875C21.25 22.0625 21.375 22 21.5625 22C26.1875 22 30 25.8125 30 30.4375C30 31.3125 29.25 32 28.375 32H3.5625C2.6875 32 2 31.3125 2 30.4375C2 25.8125 5.75 22 10.375 22C10.5625 22 10.6875 22.0625 10.875 22.1875ZM22 27C22 27.5625 22.4375 28 23 28H25C25.5 28 26 27.5625 26 27C26 26.5 25.5 26 25 26H23C22.4375 26 22 26.5 22 27Z" fill="#72BF83"/>
    <path opacity="0.4" d="M8.3125 9.6875C10.6875 10.5625 13.3125 11 16 11C18.6875 11 21.25 10.5625 23.625 9.6875C23.875 10.4375 24 11.1875 24 12C24 16.4375 20.375 20 16 20C11.5625 20 8 16.4375 8 12C8 11.1875 8.125 10.4375 8.3125 9.6875Z" fill="#72BF83"/>
</svg>
