<svg width="16" height="16" viewBox="0 0 16 16" fill="none" xmlns="http://www.w3.org/2000/svg">
    <path d="M9.75 2.5C9.3125 2.5 9 2.1875 9 1.75C9 1.34375 9.3125 1 9.75 1H14.25C14.6562 1 15 1.34375 15 1.75V6.25C15 6.6875 14.6562 7 14.25 7C13.8125 7 13.5 6.6875 13.5 6.25V3.5625L7.25 9.78125C6.96875 10.0938 6.5 10.0938 6.21875 9.78125C5.90625 9.5 5.90625 9.03125 6.21875 8.71875L12.4375 2.5H9.75ZM1 3.75C1 2.8125 1.78125 2 2.75 2H6.25C6.65625 2 7 2.34375 7 2.75C7 3.1875 6.65625 3.5 6.25 3.5H2.75C2.59375 3.5 2.5 3.625 2.5 3.75V13.25C2.5 13.4062 2.59375 13.5 2.75 13.5H12.25C12.375 13.5 12.5 13.4062 12.5 13.25V9.75C12.5 9.34375 12.8125 9 13.25 9C13.6562 9 14 9.34375 14 9.75V13.25C14 14.2188 13.1875 15 12.25 15H2.75C1.78125 15 1 14.2188 1 13.25V3.75Z" fill="#585858"/>
</svg>
