<svg width="33" height="32" viewBox="0 0 33 32" fill="none" xmlns="http://www.w3.org/2000/svg">
    <path d="M8.95139 6.75C9.57639 2.9375 12.8889 0 16.8889 0C20.5764 0 23.7014 2.5625 24.5764 6H22.3889C20.9514 6 19.7014 5.3125 18.9514 4.1875C17.8889 5.875 16.0139 7 13.8889 7H10.3889C9.88889 7 9.38889 6.9375 8.95139 6.75ZM15.9514 22.5L13.8889 19H19.8889L17.7639 22.5L19.8889 30.25L22.3264 20.125C27.1389 20.875 30.8889 25.0625 30.8889 30.125C30.8889 31.1875 30.0139 32 28.9514 32H4.76389C3.70139 32 2.88889 31.1875 2.88889 30.125C2.88889 25.0625 6.57639 20.875 11.3889 20.125L13.8264 30.25L15.9514 22.5Z" fill="#C9A2FF"/>
    <path opacity="0.4" d="M18.9514 4.1875C19.7014 5.3125 20.9514 6 22.3889 6H24.5764C24.7639 6.6875 24.8889 7.3125 24.8889 8C24.8889 12.4375 21.2639 16 16.8889 16C12.4514 16 8.88889 12.4375 8.88889 8C8.88889 7.5625 8.88889 7.1875 8.95139 6.75C9.38889 6.9375 9.88889 7 10.3889 7H13.8889C16.0139 7 17.8889 5.875 18.9514 4.1875Z" fill="#C9A2FF"/>
</svg>
