<svg width="33" height="32" viewBox="0 0 33 32" fill="none" xmlns="http://www.w3.org/2000/svg">
    <path d="M28.8889 10C31.0764 10 32.8889 11.8125 32.8889 14V28C32.8889 30.25 31.0764 32 28.8889 32H4.88892C2.63892 32 0.888916 30.25 0.888916 28V14C0.888916 11.8125 2.63892 10 4.88892 10H28.8889Z" fill="#A5C8FF"/>
    <path opacity="0.4" d="M28.3889 8H5.38892C4.51392 8 3.88892 7.375 3.88892 6.5C3.88892 5.6875 4.51392 5 5.38892 5H28.3889C29.2014 5 29.8889 5.6875 29.8889 6.5C29.8889 7.375 29.2014 8 28.3889 8ZM25.3889 3H8.38892C7.51392 3 6.88892 2.375 6.88892 1.5C6.88892 0.6875 7.51392 0 8.38892 0H25.3889C26.2014 0 26.8889 0.6875 26.8889 1.5C26.8889 2.375 26.2014 3 25.3889 3Z" fill="#A5C8FF"/>
</svg>
