<svg width="33" height="32" viewBox="0 0 33 32" fill="none" xmlns="http://www.w3.org/2000/svg">
    <path d="M22.8264 22.0625C27.2639 22.25 30.8889 25.875 30.8889 30.375C30.8889 31.3125 30.1389 32 29.2014 32H4.51392C3.57642 32 2.88892 31.3125 2.88892 30.375C2.88892 25.875 6.45142 22.25 10.8889 22.0625L16.8889 26L22.8264 22.0625ZM25.8889 28C26.3889 28 26.8889 27.5625 26.8889 27C26.8889 26.5 26.3889 26 25.8889 26H23.8889C23.3264 26 22.8889 26.5 22.8889 27C22.8889 27.5625 23.3264 28 23.8889 28H25.8889ZM7.76392 6.4375L6.38892 5.0625C6.13892 4.75 5.95142 4.375 5.95142 3.9375C5.95142 3.25 6.45142 2.625 7.13892 2.4375L16.3889 0.0625C16.7014 0 17.0139 0 17.3264 0.0625L26.6389 2.4375C27.2639 2.625 27.7639 3.25 27.7639 3.9375C27.7639 4.375 27.6389 4.75 27.3264 5.0625L25.9514 6.4375V9.1875C23.3889 10.3125 20.2639 11 16.8889 11C13.4514 11 10.3264 10.3125 7.76392 9.1875V6.4375ZM12.9514 4.5625C12.7014 5.0625 12.8889 5.6875 13.3889 6L16.3889 7.4375C16.5764 7.5 16.7014 7.5 16.8889 7.5C17.0139 7.5 17.1389 7.5 17.3264 7.375L20.3264 5.9375C20.8264 5.6875 21.0139 5.0625 20.7639 4.5625C20.5139 4.0625 19.8889 3.875 19.3889 4.125L16.8889 5.4375L14.3264 4.125C13.8264 3.875 13.2014 4.0625 12.9514 4.5625Z" fill="#FFAD8C"/>
    <path opacity="0.4" d="M24.5139 9.75C24.7014 10.5 24.8264 11.25 24.8264 12C24.8264 16.4375 21.2014 20 16.8889 20C12.5139 20 8.88892 16.4375 8.88892 12C8.88892 11.25 9.01392 10.5 9.20142 9.75C11.4514 10.5625 14.0764 11 16.8889 11C19.6389 11 22.2639 10.5625 24.5139 9.75Z" fill="#FFAD8C"/>
</svg>
