<svg width="16" height="17" viewBox="0 0 16 17" fill="none" xmlns="http://www.w3.org/2000/svg">
    <path d="M14 8.5C14 6.375 12.8438 4.40625 11 3.3125C9.125 2.25 6.84375 2.25 5 3.3125C3.125 4.40625 2 6.375 2 8.5C2 10.6562 3.125 12.625 5 13.7188C6.84375 14.7812 9.125 14.7812 11 13.7188C12.8438 12.625 14 10.6562 14 8.5ZM0 8.5C0 5.65625 1.5 3.03125 4 1.59375C6.46875 0.15625 9.5 0.15625 12 1.59375C14.4688 3.03125 16 5.65625 16 8.5C16 11.375 14.4688 14 12 15.4375C9.5 16.875 6.46875 16.875 4 15.4375C1.5 14 0 11.375 0 8.5ZM8 7.5C8.53125 7.5 9 7.96875 9 8.5C9 9.0625 8.53125 9.5 8 9.5C7.4375 9.5 7 9.0625 7 8.5C7 7.96875 7.4375 7.5 8 7.5Z" fill="#72BF83"/>
    <path opacity="0.4" d="M8 6C7.09375 6 6.28125 6.5 5.8125 7.25C5.375 8.03125 5.375 9 5.8125 9.75C6.28125 10.5312 7.09375 11 8 11C8.875 11 9.6875 10.5312 10.1562 9.75C10.5938 9 10.5938 8.03125 10.1562 7.25C9.6875 6.5 8.875 6 8 6ZM8 13C6.375 13 4.90625 12.1562 4.09375 10.75C3.28125 9.375 3.28125 7.65625 4.09375 6.25C4.90625 4.875 6.375 4 8 4C9.59375 4 11.0625 4.875 11.875 6.25C12.6875 7.65625 12.6875 9.375 11.875 10.75C11.0625 12.1562 9.59375 13 8 13Z" fill="#72BF83"/>
</svg>
