<svg width="63" height="62" viewBox="0 0 63 62" fill="none" xmlns="http://www.w3.org/2000/svg">
    <g opacity="0.15">
        <path d="M6.75 -0.5C5.5 -0.5 4.25 -0.65625 3.15625 -1.125C4.71875 -10.6562 13 -18 23 -18C32.2188 -18 40.0312 -11.5938 42.375 -3H36.75C33.1562 -3 30.0312 -4.71875 28.1562 -7.53125C25.6562 -3.3125 20.8125 -0.5 15.5 -0.5H6.75ZM20.6562 38.25L17.6875 33.4062C16.75 31.6875 17.8438 29.5 19.875 29.5H23H25.9688C28 29.5 29.0938 31.6875 28.1562 33.4062L25.1875 38.25L30.5 57.625L36.5938 32.3125C48.625 34.1875 58 44.6562 58 57.3125C58 59.9688 55.8125 62 53.1562 62H29.4062H16.4375H-7.3125C-9.96875 62 -12 59.9688 -12 57.3125C-12 44.6562 -2.78125 34.1875 9.25 32.3125L15.3438 57.625L20.6562 38.25Z" fill="#585858"/>
        <path opacity="0.4" d="M15.5 -0.5C20.8125 -0.5 25.6562 -3.3125 28.1562 -7.53125C30.0312 -4.71875 33.1562 -3 36.75 -3H42.375C42.6875 -1.28125 43 0.28125 43 2C43 13.0938 33.9375 22 23 22C11.9062 22 3 13.0938 3 2C3 0.90625 3 -0.03125 3.15625 -1.125C4.25 -0.65625 5.5 -0.5 6.75 -0.5H15.5Z" fill="#585858"/>
    </g>
</svg>
