<svg width="63" height="62" viewBox="0 0 63 62" fill="none" xmlns="http://www.w3.org/2000/svg">
    <g opacity="0.15">
        <path d="M23.9375 -17.8438L47.6875 -11.5938C48.9375 -11.125 50.0312 -10.1875 50.3438 -8.78125C50.6562 -7.375 50.1875 -5.96875 49.0938 -5.03125L45.3438 -1.90625C45.3438 -1.75 45.3438 -1.59375 45.3438 -1.4375V1.84375C45.3438 3.5625 44.5625 5.125 43 5.90625C39.25 7.46875 32.375 9.65625 22.8438 9.65625C13.4688 9.65625 6.59375 7.46875 2.84375 5.90625C1.28125 5.125 0.5 3.5625 0.5 1.84375V-1.4375C0.5 -1.59375 0.5 -1.75 0.5 -1.90625L-3.25 -5.03125C-4.34375 -5.96875 -4.8125 -7.375 -4.5 -8.78125C-4.1875 -10.1875 -3.09375 -11.2812 -1.84375 -11.5938L21.9062 -17.8438C22.5312 -18 23.3125 -18 23.9375 -17.8438ZM13.1562 -6.59375C12.5312 -5.34375 13.1562 -3.78125 14.25 -3.15625L21.75 0.59375C22.5312 0.90625 23.3125 0.90625 24.0938 0.59375L31.5938 -3.15625C32.8438 -3.78125 33.3125 -5.34375 32.6875 -6.59375C32.0625 -7.84375 30.5 -8.3125 29.25 -7.6875L23 -4.40625L16.5938 -7.6875C15.3438 -8.3125 13.7812 -7.84375 13.1562 -6.59375ZM10.1875 37.4688L21.4375 45.9062C22.375 46.6875 23.4688 46.6875 24.4062 45.9062L35.6562 37.4688C36.125 37.1562 36.4375 37 36.9062 37C48.4688 37 58 46.5312 58 58.0938C58 60.2812 56.125 62 53.9375 62H-8.09375C-10.2812 62 -12 60.2812 -12 58.0938C-12 46.5312 -2.625 37 8.9375 37C9.40625 37 9.71875 37.1562 10.1875 37.4688ZM38 49.5C38 50.9062 39.0938 52 40.5 52H45.5C46.75 52 48 50.9062 48 49.5C48 48.25 46.75 47 45.5 47H40.5C39.0938 47 38 48.25 38 49.5Z" fill="#72BF83"/>
        <path opacity="0.4" d="M3.78125 6.21875C9.71875 8.40625 16.2812 9.5 23 9.5C29.7188 9.5 36.125 8.40625 42.0625 6.21875C42.6875 8.09375 43 9.96875 43 12C43 23.0938 33.9375 32 23 32C11.9062 32 3 23.0938 3 12C3 9.96875 3.3125 8.09375 3.78125 6.21875Z" fill="#72BF83"/>
    </g>
</svg>
