<svg width="28" height="28" viewBox="0 0 28 28" fill="none" xmlns="http://www.w3.org/2000/svg">
    <path d="M17.1172 26.75C15.6953 27.0234 14.3281 26.0938 14 24.6719L13.8906 24.0156C13.5625 22.2109 12.5234 20.5703 11.1016 19.4219L10.7188 19.0938C9.46094 18.1094 8.75 16.6328 8.75 14.9922V13.625V11V8.92188C8.75 7.17188 9.625 5.53125 11.0469 4.54688L13.1797 3.17969C14.0547 2.57812 15.0391 2.25 16.0781 2.25H21.4375C22.8594 2.25 24.0625 3.45312 24.0625 4.875C24.0625 5.09375 24.0078 5.3125 23.9531 5.47656C25.0469 5.80469 25.8125 6.78906 25.8125 7.9375C25.8125 8.48438 25.6484 8.92188 25.4297 9.30469C26.6328 9.57812 27.5625 10.6172 27.5625 11.875C27.5625 12.75 27.1797 13.4609 26.5781 13.9531C27.3984 14.3906 28 15.2656 28 16.25C28 17.7266 26.7969 18.875 25.375 18.875H17.5C18.2109 20.1875 18.7578 21.5547 19.0312 23.0312L19.1953 23.6328C19.4688 25.0547 18.5391 26.4219 17.1172 26.75ZM1.75 21.5C0.765625 21.5 0 20.7344 0 19.75V7.5C0 6.57031 0.765625 5.75 1.75 5.75H5.25C6.17969 5.75 7 6.57031 7 7.5V19.75C7 20.7344 6.17969 21.5 5.25 21.5H1.75Z" fill="#D39090"/>
</svg>
