<svg width="28" height="28" viewBox="0 0 28 28" fill="none" xmlns="http://www.w3.org/2000/svg">
    <path d="M17.1172 2.30469C18.5391 2.63281 19.4688 4 19.1953 5.42188L19.0312 6.02344C18.7578 7.5 18.2109 8.86719 17.5 10.125H25.375C26.7969 10.125 28 11.3281 28 12.75C28 13.7891 27.3984 14.6641 26.5781 15.1016C27.1797 15.5938 27.5625 16.3047 27.5625 17.125C27.5625 18.4375 26.6328 19.4766 25.4297 19.75C25.6484 20.1328 25.8125 20.5703 25.8125 21.0625C25.8125 22.2656 25.0469 23.25 23.9531 23.5781C24.0078 23.7422 24.0625 23.9609 24.0625 24.125C24.0625 25.6016 22.8594 26.75 21.4375 26.75H16.0781C15.0391 26.75 14.0547 26.4766 13.1797 25.875L11.0469 24.5078C9.625 23.5234 8.75 21.8828 8.75 20.1328V18V15.375V14.0625C8.75 12.4219 9.46094 10.9453 10.7188 9.96094L11.1016 9.63281C12.5234 8.42969 13.5625 6.84375 13.8906 4.98438L14 4.38281C14.3281 2.96094 15.6953 2.03125 17.1172 2.30469ZM1.75 11H5.25C6.17969 11 7 11.8203 7 12.75V25C7 25.9844 6.17969 26.75 5.25 26.75H1.75C0.765625 26.75 0 25.9844 0 25V12.75C0 11.8203 0.765625 11 1.75 11Z"
          fill="#72BF83"/>
</svg>
