<svg width="41" height="40" viewBox="0 0 41 40" fill="none" xmlns="http://www.w3.org/2000/svg">
    <path d="M18.7031 3.28125C19.6406 2.26562 21.2812 2.26562 22.2188 3.28125L37.2188 18.2812C38.2344 19.2188 38.2344 20.8594 37.2188 21.7969C36.2812 22.8125 34.6406 22.8125 33.7031 21.7969L20.5 8.59375L7.21875 21.7969C6.28125 22.8125 4.64062 22.8125 3.70312 21.7969C2.6875 20.8594 2.6875 19.2188 3.70312 18.2812L18.7031 3.28125Z"
          fill="#C9A2FF"/>
    <path opacity="0.4"
          d="M18.7031 18.2812C19.6406 17.2656 21.2812 17.2656 22.2188 18.2812L37.2188 33.2812C38.2344 34.2188 38.2344 35.8594 37.2188 36.7969C36.2812 37.8125 34.6406 37.8125 33.7031 36.7969L20.5 23.5938L7.21875 36.7969C6.28125 37.8125 4.64062 37.8125 3.70312 36.7969C2.6875 35.8594 2.6875 34.2188 3.70312 33.2812L18.7031 18.2812Z"
          fill="#C9A2FF"/>
</svg>
