<svg width="40" height="32" viewBox="0 0 40 32" fill="none" xmlns="http://www.w3.org/2000/svg">
    <g clip-path="url(#clip0_1566_9528)">
        <path d="M32.3192 19.5996C32.3192 18.3009 31.8033 17.0554 30.885 16.137C29.9666 15.2187 28.7211 14.7028 27.4224 14.7028C26.1237 14.7028 24.8781 15.2187 23.9598 16.137C23.0414 17.0554 22.5255 18.3009 22.5255 19.5996C22.5255 20.8984 23.0414 22.1439 23.9598 23.0622C24.8781 23.9806 26.1237 24.4965 27.4224 24.4965C28.7211 24.4965 29.9666 23.9806 30.885 23.0622C31.8033 22.1439 32.3192 20.8984 32.3192 19.5996ZM31.8234 26.0757C30.5686 26.9327 29.0506 27.4285 27.4224 27.4285C23.0948 27.4285 19.5874 23.9211 19.5874 19.5935C19.5874 15.2659 23.0948 11.7585 27.4224 11.7585C31.75 11.7585 35.2574 15.2659 35.2574 19.5935C35.2574 21.2278 34.7554 22.7398 33.9046 23.9946L38.7464 28.8425C39.3218 29.4178 39.3218 30.3483 38.7464 30.9175C38.171 31.4868 37.2406 31.4929 36.6713 30.9175L31.8234 26.0757Z" fill="#2C2C2C"/>
        <path opacity="0.4" d="M5.87623 7.83498C5.87623 5.75701 6.7017 3.76416 8.17104 2.29481C9.64039 0.825469 11.6332 0 13.7112 0C15.7892 0 17.782 0.825469 19.2514 2.29481C20.7207 3.76416 21.5462 5.75701 21.5462 7.83498C21.5462 9.91294 20.7207 11.9058 19.2514 13.3751C17.782 14.8445 15.7892 15.67 13.7112 15.67C11.6332 15.67 9.64039 14.8445 8.17104 13.3751C6.7017 11.9058 5.87623 9.91294 5.87623 7.83498ZM0 29.522C0 23.4927 4.88462 18.6081 10.9139 18.6081H16.5085C16.9003 18.6081 17.2859 18.6264 17.6715 18.6693C17.6409 18.9692 17.6287 19.2753 17.6287 19.5874C17.6287 24.9985 22.0114 29.3812 27.4224 29.3812C27.4224 29.4301 27.4224 29.473 27.4224 29.522C27.4224 30.5258 26.6083 31.3399 25.6045 31.3399H1.81796C0.814103 31.3399 0 30.5258 0 29.522Z" fill="#2C2C2C"/>
    </g>
    <defs>
        <clipPath id="clip0_1566_9528">
            <rect width="39.1749" height="31.3399" fill="white"/>
        </clipPath>
    </defs>
</svg>
