<svg width="40" height="32" viewBox="0 0 40 32" fill="none" xmlns="http://www.w3.org/2000/svg">
    <g clip-path="url(#clip0_1154_2718)">
        <path d="M32.3193 19.5998C32.3193 18.301 31.8034 17.0555 30.885 16.1372C29.9667 15.2188 28.7212 14.7029 27.4224 14.7029C26.1237 14.7029 24.8782 15.2188 23.9598 16.1372C23.0415 17.0555 22.5256 18.301 22.5256 19.5998C22.5256 20.8985 23.0415 22.144 23.9598 23.0624C24.8782 23.9807 26.1237 24.4966 27.4224 24.4966C28.7212 24.4966 29.9667 23.9807 30.885 23.0624C31.8034 22.144 32.3193 20.8985 32.3193 19.5998ZM31.8235 26.0759C30.5687 26.9328 29.0506 27.4286 27.4224 27.4286C23.0948 27.4286 19.5875 23.9212 19.5875 19.5936C19.5875 15.266 23.0948 11.7587 27.4224 11.7587C31.75 11.7587 35.2574 15.266 35.2574 19.5936C35.2574 21.228 34.7555 22.7399 33.9047 23.9947L38.7464 28.8426C39.3218 29.418 39.3218 30.3484 38.7464 30.9176C38.1711 31.4869 37.2406 31.493 36.6714 30.9176L31.8235 26.0759Z"
              fill="white"/>
        <path opacity="0.4"
              d="M5.87623 7.83498C5.87623 5.75701 6.7017 3.76416 8.17104 2.29481C9.64039 0.825469 11.6332 0 13.7112 0C15.7892 0 17.782 0.825469 19.2514 2.29481C20.7207 3.76416 21.5462 5.75701 21.5462 7.83498C21.5462 9.91294 20.7207 11.9058 19.2514 13.3751C17.782 14.8445 15.7892 15.67 13.7112 15.67C11.6332 15.67 9.64039 14.8445 8.17104 13.3751C6.7017 11.9058 5.87623 9.91294 5.87623 7.83498ZM0 29.522C0 23.4927 4.88462 18.6081 10.9139 18.6081H16.5085C16.9003 18.6081 17.2859 18.6264 17.6715 18.6693C17.6409 18.9692 17.6287 19.2753 17.6287 19.5874C17.6287 24.9985 22.0114 29.3812 27.4224 29.3812C27.4224 29.4301 27.4224 29.473 27.4224 29.522C27.4224 30.5258 26.6083 31.3399 25.6045 31.3399H1.81796C0.814103 31.3399 0 30.5258 0 29.522Z"
              fill="white"/>
    </g>
    <defs>
        <clipPath id="clip0_1154_2718">
            <rect width="39.1749" height="31.3399" fill="white"/>
        </clipPath>
    </defs>
</svg>
