<svg width="18" height="16" viewBox="0 0 18 16" fill="none" xmlns="http://www.w3.org/2000/svg">
    <path d="M7.9375 4H9.75C10.8438 4 11.7188 4.90625 11.7188 6C11.7188 6.6875 11.3438 7.34375 10.75 7.6875L9.71875 8.28125C9.71875 8.6875 9.40625 9 8.96875 9C8.5625 9 8.21875 8.6875 8.21875 8.25V7.84375C8.21875 7.5625 8.375 7.3125 8.625 7.1875L10 6.40625C10.1562 6.3125 10.2188 6.15625 10.2188 6C10.2188 5.71875 10.0312 5.5 9.75 5.5H7.9375C7.84375 5.5 7.75 5.59375 7.71875 5.6875L7.6875 5.71875C7.5625 6.09375 7.125 6.3125 6.75 6.1875C6.34375 6.03125 6.15625 5.59375 6.28125 5.21875V5.1875C6.53125 4.46875 7.1875 4 7.9375 4ZM9 12C8.4375 12 8 11.5625 8 11C8 10.4688 8.4375 10 9 10C9.53125 10 10 10.4688 10 11C10 11.5625 9.53125 12 9 12Z" fill="#2C2C2C"/>
    <path d="M9 16C6.125 16 3.5 14.5 2.0625 12C0.625 9.53125 0.625 6.5 2.0625 4C3.5 1.53125 6.125 0 9 0C11.8438 0 14.4688 1.53125 15.9062 4C17.3438 6.5 17.3438 9.53125 15.9062 12C14.4688 14.5 11.8438 16 9 16ZM6.28125 5.1875V5.21875C6.15625 5.59375 6.34375 6.03125 6.75 6.1875C7.125 6.3125 7.5625 6.125 7.6875 5.71875L7.71875 5.6875C7.75 5.59375 7.84375 5.53125 7.9375 5.53125H9.75C10.0312 5.53125 10.25 5.71875 10.25 6C10.25 6.15625 10.1562 6.3125 10 6.40625L8.625 7.1875C8.375 7.3125 8.25 7.5625 8.25 7.84375V8.25C8.25 8.6875 8.5625 9 9 9C9.40625 9 9.71875 8.6875 9.75 8.28125L10.75 7.6875C11.3438 7.34375 11.75 6.6875 11.75 6C11.75 4.90625 10.8438 4 9.75 4H7.9375C7.1875 4 6.53125 4.46875 6.28125 5.1875ZM8 11C8 11.5625 8.4375 12 9 12C9.53125 12 10 11.5625 10 11C10 10.4688 9.53125 10 9 10C8.4375 10 8 10.4688 8 11Z" fill="white"/>
</svg>
