<svg width="16" height="16" viewBox="0 0 16 16" fill="none" xmlns="http://www.w3.org/2000/svg">
    <path d="M1.25 8C1.25 7.375 1.5625 6.8125 2.125 6.5C2.65625 6.1875 3.3125 6.1875 3.875 6.5C4.40625 6.8125 4.75 7.375 4.75 8C4.75 8.65625 4.40625 9.21875 3.875 9.53125C3.3125 9.84375 2.65625 9.84375 2.125 9.53125C1.5625 9.21875 1.25 8.65625 1.25 8ZM6.25 8C6.25 7.375 6.5625 6.8125 7.125 6.5C7.65625 6.1875 8.3125 6.1875 8.875 6.5C9.40625 6.8125 9.75 7.375 9.75 8C9.75 8.65625 9.40625 9.21875 8.875 9.53125C8.3125 9.84375 7.65625 9.84375 7.125 9.53125C6.5625 9.21875 6.25 8.65625 6.25 8ZM13 6.25C13.625 6.25 14.1875 6.59375 14.5 7.125C14.8125 7.6875 14.8125 8.34375 14.5 8.875C14.1875 9.4375 13.625 9.75 13 9.75C12.3438 9.75 11.7812 9.4375 11.4688 8.875C11.1562 8.34375 11.1562 7.6875 11.4688 7.125C11.7812 6.59375 12.3438 6.25 13 6.25Z"
          fill="white"/>
</svg>
