<svg width="11" height="12" viewBox="0 0 11 12" fill="none" xmlns="http://www.w3.org/2000/svg">
    <path d="M10.0762 4.07617L8.10742 6.04492C7.86133 6.31152 7.43066 6.31152 7.18457 6.04492C6.91797 5.79883 6.91797 5.36816 7.18457 5.12207L8.02539 4.28125L1.75 4.28125C1.38086 4.28125 1.09375 3.97363 1.09375 3.625C1.09375 3.25586 1.38086 2.96875 1.75 2.96875L8.02539 2.96875L7.18457 2.10742C6.91797 1.86133 6.91797 1.43066 7.18457 1.18457C7.43066 0.917969 7.86133 0.917969 8.10742 1.18457L10.0762 3.15332C10.3428 3.39941 10.3428 3.83008 10.0762 4.07617ZM3.24707 11.2949L1.27832 9.32617C1.01172 9.08008 1.01172 8.64941 1.27832 8.40332L3.24707 6.43457C3.49316 6.16797 3.92383 6.16797 4.16992 6.43457C4.43652 6.68066 4.43652 7.11133 4.16992 7.35742L3.3291 8.21875L9.625 8.21875C9.97363 8.21875 10.2812 8.50586 10.2812 8.875C10.2812 9.22363 9.97363 9.53125 9.625 9.53125L3.3291 9.53125L4.16992 10.3721C4.43652 10.6182 4.43652 11.0488 4.16992 11.2949C3.92383 11.5615 3.49316 11.5615 3.24707 11.2949Z" fill="white"/>
</svg>
