<svg width="36" height="32" viewBox="0 0 36 32" fill="none" xmlns="http://www.w3.org/2000/svg">
    <g clip-path="url(#clip0_1154_2712)">
        <path d="M13.7699 9.83558V0L23.6054 9.83558H13.7699ZM34.6889 15.3742C35.6479 16.3332 35.6479 17.8946 34.6889 18.8536L32.8755 20.6609L28.5171 16.3025L30.3244 14.489C31.2833 13.5301 32.8386 13.5301 33.8037 14.489L34.6889 15.3742ZM19.1733 25.6401L27.1217 17.6918L31.4862 22.0563L23.5378 30.0047C23.2858 30.2567 22.9723 30.435 22.628 30.521L18.9274 31.4431C18.5893 31.5292 18.2389 31.4308 17.993 31.1849C17.7471 30.9391 17.6488 30.5887 17.7348 30.2506L18.6569 26.5499C18.743 26.2057 18.9213 25.8922 19.1733 25.6401Z" fill="#585858"/>
        <path opacity="0.4" d="M0 3.93423C0 1.76118 1.76118 0 3.93423 0H13.7698V9.83558H23.6054V18.411L17.784 24.2386C17.2799 24.7426 16.9233 25.3697 16.7512 26.009L15.823 29.7588C15.6816 30.3366 15.7185 30.9329 15.9091 31.4739H3.93423C1.76118 31.4739 0 29.7096 0 27.5396V3.93423Z" fill="#585858"/>
    </g>
    <defs>
        <clipPath id="clip0_1154_2712">
            <rect width="35.4081" height="31.4739" fill="white"/>
        </clipPath>
    </defs>
</svg>
