<svg width="306" height="144" viewBox="0 0 306 144" fill="none" xmlns="http://www.w3.org/2000/svg">
    <line y1="83.5" x2="306" y2="83.5" stroke="#585858"/>
    <rect x="13.5" y="15" width="16" height="68" fill="#404040"/>
    <path d="M14.676 8.42L12.78 11H11.028L13.128 8.204C12.912 8.264 12.684 8.3 12.468 8.3C10.656 8.3 9.432 7.028 9.432 5.252C9.432 3.38 10.824 2.072 12.696 2.072C14.592 2.072 16.008 3.464 16.008 5.264C16.008 6.32 15.66 7.088 14.676 8.42ZM14.436 5.252C14.436 4.184 13.728 3.44 12.696 3.44C11.688 3.44 10.98 4.184 10.98 5.252C10.98 6.308 11.688 7.04 12.696 7.04C13.74 7.04 14.436 6.308 14.436 5.252ZM17.7478 11.144C17.2198 11.144 16.7758 10.712 16.7758 10.196C16.7758 9.668 17.2198 9.236 17.7478 9.236C18.2758 9.236 18.7198 9.668 18.7198 10.196C18.7198 10.712 18.2758 11.144 17.7478 11.144ZM24.8948 8.42L22.9988 11H21.2468L23.3468 8.204C23.1308 8.264 22.9028 8.3 22.6868 8.3C20.8748 8.3 19.6508 7.028 19.6508 5.252C19.6508 3.38 21.0428 2.072 22.9148 2.072C24.8108 2.072 26.2268 3.464 26.2268 5.264C26.2268 6.32 25.8788 7.088 24.8948 8.42ZM24.6548 5.252C24.6548 4.184 23.9468 3.44 22.9148 3.44C21.9068 3.44 21.1988 4.184 21.1988 5.252C21.1988 6.308 21.9068 7.04 22.9148 7.04C23.9588 7.04 24.6548 6.308 24.6548 5.252ZM28.8922 11H27.4402V2.072H28.8922V7.556L31.1962 5.072H33.0322L30.7762 7.424L32.9842 11H31.3042L29.7562 8.504L28.8922 9.404V11Z" fill="#393939"/>
    <rect x="45" y="23" width="15" height="60" fill="#C9A2FF"/>
    <path d="M45.676 17.42L43.78 20H42.028L44.128 17.204C43.912 17.264 43.684 17.3 43.468 17.3C41.656 17.3 40.432 16.028 40.432 14.252C40.432 12.38 41.824 11.072 43.696 11.072C45.592 11.072 47.008 12.464 47.008 14.264C47.008 15.32 46.66 16.088 45.676 17.42ZM45.436 14.252C45.436 13.184 44.728 12.44 43.696 12.44C42.688 12.44 41.98 13.184 41.98 14.252C41.98 15.308 42.688 16.04 43.696 16.04C44.74 16.04 45.436 15.308 45.436 14.252ZM48.7478 20.144C48.2198 20.144 47.7758 19.712 47.7758 19.196C47.7758 18.668 48.2198 18.236 48.7478 18.236C49.2758 18.236 49.7198 18.668 49.7198 19.196C49.7198 19.712 49.2758 20.144 48.7478 20.144ZM57.136 19.988L51.052 20V18.848L53.92 16.424C55.108 15.416 55.504 14.84 55.504 14C55.504 13.004 54.964 12.44 54.04 12.44C53.08 12.44 52.48 13.112 52.468 14.24H50.944C50.956 12.32 52.18 11.072 54.04 11.072C55.912 11.072 57.076 12.14 57.076 13.916C57.076 15.14 56.404 16.064 55.072 17.204L53.488 18.56H57.136V19.988ZM59.7984 20H58.3464V11.072H59.7984V16.556L62.1024 14.072H63.9384L61.6824 16.424L63.8904 20H62.2104L60.6624 17.504L59.7984 18.404V20Z" fill="#393939"/>
    <path d="M71.744 140.444V139.148H75.608V140.444H71.744ZM76.0645 134.228H82.3645V135.644L79.1845 143H77.5885L80.8285 135.644H76.0645V134.228ZM82.9353 143.144C82.4073 143.144 81.9633 142.712 81.9633 142.196C81.9633 141.668 82.4073 141.236 82.9353 141.236C83.4633 141.236 83.9073 141.668 83.9073 142.196C83.9073 142.712 83.4633 143.144 82.9353 143.144ZM87.69 138.656H86.622V137.66L88.878 135.584H85.23V134.228H90.798V135.452L88.662 137.42C90.006 137.684 91.05 138.668 91.05 140.216C91.05 142.016 89.646 143.156 87.87 143.156C86.154 143.156 84.822 142.1 84.822 140.204H86.334C86.334 141.212 86.958 141.788 87.894 141.788C88.854 141.788 89.49 141.164 89.49 140.192C89.49 139.304 88.914 138.656 87.69 138.656ZM93.6461 143H92.1941V134.072H93.6461V139.556L95.9501 137.072H97.7861L95.5301 139.424L97.7381 143H96.0581L94.5101 140.504L93.6461 141.404V143Z" fill="#393939"/>
    <rect x="77.5" y="84" width="14" height="46" fill="#404040"/>
    <rect x="107.5" y="45" width="14" height="38" fill="#404040"/>
    <path d="M107.54 42.144C105.704 42.144 104.492 40.968 104.492 39.192H106.016C106.016 40.188 106.604 40.776 107.576 40.776C108.608 40.776 109.268 40.104 109.268 39.036C109.268 38.016 108.656 37.32 107.6 37.32C106.928 37.32 106.316 37.656 106.004 38.112L104.648 37.824L105.728 33.228H110.3V34.644H106.832L106.364 36.468C106.784 36.192 107.312 36.036 107.912 36.036C109.664 36.036 110.828 37.224 110.828 38.952C110.828 40.848 109.496 42.144 107.54 42.144ZM112.748 42.144C112.22 42.144 111.776 41.712 111.776 41.196C111.776 40.668 112.22 40.236 112.748 40.236C113.276 40.236 113.72 40.668 113.72 41.196C113.72 41.712 113.276 42.144 112.748 42.144ZM115.644 34.608H113.724V33.228H117.12V42H115.644V34.608ZM120.33 42H118.878V33.072H120.33V38.556L122.634 36.072H124.47L122.214 38.424L124.422 42H122.742L121.194 39.504L120.33 40.404V42Z" fill="#393939"/>
    <rect x="135" y="51" width="14" height="32" fill="#7A7A7A"/>
    <path d="M138.308 46.332H137.24V48H135.788V46.332H131.336V44.988L135.308 39.228H137.24V44.988H138.308V46.332ZM132.968 44.988H135.788V40.884L132.968 44.988ZM140.31 48.144C139.782 48.144 139.338 47.712 139.338 47.196C139.338 46.668 139.782 46.236 140.31 46.236C140.838 46.236 141.282 46.668 141.282 47.196C141.282 47.712 140.838 48.144 140.31 48.144ZM143.207 40.608H141.287V39.228H144.683V48H143.207V40.608ZM147.892 48H146.44V39.072H147.892V44.556L150.196 42.072H152.032L149.776 44.424L151.984 48H150.304L148.756 45.504L147.892 46.404V48Z" fill="#393939"/>
    <rect x="163.5" y="55" width="14" height="28" fill="#E2E2E2"/>
    <path d="M162.108 47.656H161.04V46.66L163.296 44.584H159.648V43.228H165.216V44.452L163.08 46.42C164.424 46.684 165.468 47.668 165.468 49.216C165.468 51.016 164.064 52.156 162.288 52.156C160.572 52.156 159.24 51.1 159.24 49.204H160.752C160.752 50.212 161.376 50.788 162.312 50.788C163.272 50.788 163.908 50.164 163.908 49.192C163.908 48.304 163.332 47.656 162.108 47.656ZM167.467 52.144C166.939 52.144 166.495 51.712 166.495 51.196C166.495 50.668 166.939 50.236 167.467 50.236C167.995 50.236 168.439 50.668 168.439 51.196C168.439 51.712 167.995 52.144 167.467 52.144ZM168.939 43.228H175.239V44.644L172.059 52H170.463L173.703 44.644H168.939V43.228ZM177.545 52H176.093V43.072H177.545V48.556L179.849 46.072H181.685L179.429 48.424L181.637 52H179.957L178.409 49.504L177.545 50.404V52Z" fill="#393939"/>
    <rect x="192.5" y="55" width="14" height="28" fill="#B5B5B5"/>
    <path d="M191.108 47.656H190.04V46.66L192.296 44.584H188.648V43.228H194.216V44.452L192.08 46.42C193.424 46.684 194.468 47.668 194.468 49.216C194.468 51.016 193.064 52.156 191.288 52.156C189.572 52.156 188.24 51.1 188.24 49.204H189.752C189.752 50.212 190.376 50.788 191.312 50.788C192.272 50.788 192.908 50.164 192.908 49.192C192.908 48.304 192.332 47.656 191.108 47.656ZM196.467 52.144C195.939 52.144 195.495 51.712 195.495 51.196C195.495 50.668 195.939 50.236 196.467 50.236C196.995 50.236 197.439 50.668 197.439 51.196C197.439 51.712 196.995 52.144 196.467 52.144ZM197.939 43.228H204.239V44.644L201.059 52H199.463L202.703 44.644H197.939V43.228ZM206.545 52H205.093V43.072H206.545V48.556L208.849 46.072H210.685L208.429 48.424L210.637 52H208.957L207.409 49.504L206.545 50.404V52Z" fill="#393939"/>
    <rect x="221.5" y="55" width="14" height="28" fill="#7A7A7A"/>
    <path d="M220.108 47.656H219.04V46.66L221.296 44.584H217.648V43.228H223.216V44.452L221.08 46.42C222.424 46.684 223.468 47.668 223.468 49.216C223.468 51.016 222.064 52.156 220.288 52.156C218.572 52.156 217.24 51.1 217.24 49.204H218.752C218.752 50.212 219.376 50.788 220.312 50.788C221.272 50.788 221.908 50.164 221.908 49.192C221.908 48.304 221.332 47.656 220.108 47.656ZM225.467 52.144C224.939 52.144 224.495 51.712 224.495 51.196C224.495 50.668 224.939 50.236 225.467 50.236C225.995 50.236 226.439 50.668 226.439 51.196C226.439 51.712 225.995 52.144 225.467 52.144ZM226.939 43.228H233.239V44.644L230.059 52H228.463L231.703 44.644H226.939V43.228ZM235.545 52H234.093V43.072H235.545V48.556L237.849 46.072H239.685L237.429 48.424L239.637 52H237.957L236.409 49.504L235.545 50.404V52Z" fill="#393939"/>
    <rect x="250.5" y="55" width="14" height="28" fill="#E2E2E2"/>
    <path d="M249.108 47.656H248.04V46.66L250.296 44.584H246.648V43.228H252.216V44.452L250.08 46.42C251.424 46.684 252.468 47.668 252.468 49.216C252.468 51.016 251.064 52.156 249.288 52.156C247.572 52.156 246.24 51.1 246.24 49.204H247.752C247.752 50.212 248.376 50.788 249.312 50.788C250.272 50.788 250.908 50.164 250.908 49.192C250.908 48.304 250.332 47.656 249.108 47.656ZM254.467 52.144C253.939 52.144 253.495 51.712 253.495 51.196C253.495 50.668 253.939 50.236 254.467 50.236C254.995 50.236 255.439 50.668 255.439 51.196C255.439 51.712 254.995 52.144 254.467 52.144ZM255.939 43.228H262.239V44.644L259.059 52H257.463L260.703 44.644H255.939V43.228ZM264.545 52H263.093V43.072H264.545V48.556L266.849 46.072H268.685L266.429 48.424L268.637 52H266.957L265.409 49.504L264.545 50.404V52Z" fill="#393939"/>
    <rect x="279.5" y="55" width="14" height="28" fill="#B5B5B5"/>
    <path d="M278.108 47.656H277.04V46.66L279.296 44.584H275.648V43.228H281.216V44.452L279.08 46.42C280.424 46.684 281.468 47.668 281.468 49.216C281.468 51.016 280.064 52.156 278.288 52.156C276.572 52.156 275.24 51.1 275.24 49.204H276.752C276.752 50.212 277.376 50.788 278.312 50.788C279.272 50.788 279.908 50.164 279.908 49.192C279.908 48.304 279.332 47.656 278.108 47.656ZM283.467 52.144C282.939 52.144 282.495 51.712 282.495 51.196C282.495 50.668 282.939 50.236 283.467 50.236C283.995 50.236 284.439 50.668 284.439 51.196C284.439 51.712 283.995 52.144 283.467 52.144ZM284.939 43.228H291.239V44.644L288.059 52H286.463L289.703 44.644H284.939V43.228ZM293.545 52H292.093V43.072H293.545V48.556L295.849 46.072H297.685L295.429 48.424L297.637 52H295.957L294.409 49.504L293.545 50.404V52Z" fill="#393939"/>
</svg>
