<svg width="341" height="452" viewBox="0 0 341 452" fill="none" xmlns="http://www.w3.org/2000/svg">
<g opacity="0.5" filter="url(#filter0_f_2272_15358)">
<g filter="url(#filter1_f_2272_15358)">
<path d="M295.407 156C224.377 223.6 95.9265 244.5 40.5803 246.5" stroke="#9EB3DD"/>
</g>
<g filter="url(#filter2_f_2272_15358)">
<path d="M191.57 295C120.539 362.6 174.013 411.5 204.612 420" stroke="#9EB3DD"/>
</g>
<g filter="url(#filter3_f_2272_15358)">
<path d="M307.948 157C236.917 224.6 363.294 340 307.948 342" stroke="#9EB3DD"/>
</g>
<g filter="url(#filter4_f_2272_15358)">
<path d="M85.2251 32.9999C114.821 119.5 275.342 165.5 298.417 141.5" stroke="#9EB3DD"/>
</g>
<g filter="url(#filter5_f_2272_15358)">
<path d="M107.297 161C189.062 250 37.5705 381 60.6454 357" stroke="#9EB3DD"/>
</g>
<g filter="url(#filter6_f_2272_15358)">
<path d="M32.053 249C113.818 338 167.493 317 190.567 293" stroke="#9EB3DD"/>
</g>
<g filter="url(#filter7_f_2272_15358)">
<ellipse cx="30.5475" cy="246.5" rx="14.5472" ry="14.5" transform="rotate(180 30.5475 246.5)" fill="#C9A2FF"/>
<path d="M16.5003 246.5C16.5003 238.77 22.7879 232.5 30.5475 232.5C38.3071 232.5 44.5947 238.77 44.5947 246.5C44.5947 254.23 38.3071 260.5 30.5475 260.5C22.7879 260.5 16.5003 254.23 16.5003 246.5Z" stroke="#9EB3DD"/>
</g>
<g filter="url(#filter8_f_2272_15358)">
<ellipse cx="306.443" cy="147.5" rx="14.5472" ry="14.5" transform="rotate(180 306.443 147.5)" fill="#C9A2FF"/>
<path d="M292.396 147.5C292.396 139.769 298.683 133.5 306.443 133.5C314.203 133.5 320.49 139.769 320.49 147.5C320.49 155.23 314.203 161.5 306.443 161.5C298.683 161.5 292.396 155.23 292.396 147.5Z" stroke="#9EB3DD"/>
</g>
<g filter="url(#filter9_f_2272_15358)">
<ellipse cx="107.798" cy="161.5" rx="14.5472" ry="14.5" transform="rotate(180 107.798 161.5)" fill="#C9A2FF"/>
<path d="M93.7508 161.5C93.7508 153.769 100.038 147.5 107.798 147.5C115.558 147.5 121.845 153.769 121.845 161.5C121.845 169.23 115.558 175.5 107.798 175.5C100.038 175.5 93.7508 169.23 93.7508 161.5Z" stroke="#9EB3DD"/>
</g>
<g filter="url(#filter10_f_2272_15358)">
<ellipse cx="87.7336" cy="33.4995" rx="14.5472" ry="14.5" transform="rotate(180 87.7336 33.4995)" fill="#C9A2FF"/>
<path d="M73.6863 33.4995C73.6863 25.7691 79.974 19.4995 87.7335 19.4995C95.4931 19.4995 101.781 25.7691 101.781 33.4995C101.781 41.23 95.4931 47.4995 87.7336 47.4995C79.974 47.4995 73.6863 41.23 73.6863 33.4995Z" stroke="#9EB3DD"/>
</g>
<g filter="url(#filter11_f_2272_15358)">
<ellipse cx="62.652" cy="354.5" rx="14.5472" ry="14.5" transform="rotate(180 62.652 354.5)" fill="#C9A2FF"/>
<path d="M48.6048 354.5C48.6048 346.77 54.8924 340.5 62.652 340.5C70.4116 340.5 76.6992 346.77 76.6992 354.5C76.6992 362.23 70.4116 368.5 62.652 368.5C54.8924 368.5 48.6048 362.23 48.6048 354.5Z" stroke="#9EB3DD"/>
</g>
<g filter="url(#filter12_f_2272_15358)">
<ellipse cx="309.453" cy="347.5" rx="14.5472" ry="14.5" transform="rotate(180 309.453 347.5)" fill="#C9A2FF"/>
<path d="M295.406 347.5C295.406 339.77 301.693 333.5 309.453 333.5C317.212 333.5 323.5 339.77 323.5 347.5C323.5 355.23 317.212 361.5 309.453 361.5C301.693 361.5 295.406 355.23 295.406 347.5Z" stroke="#9EB3DD"/>
</g>
<g filter="url(#filter13_f_2272_15358)">
<ellipse cx="206.117" cy="418.5" rx="14.5472" ry="14.5" transform="rotate(180 206.117 418.5)" fill="#C9A2FF"/>
<path d="M192.07 418.5C192.07 410.77 198.358 404.5 206.117 404.5C213.877 404.5 220.165 410.77 220.165 418.5C220.165 426.23 213.877 432.5 206.117 432.5C198.358 432.5 192.07 426.23 192.07 418.5Z" stroke="#9EB3DD"/>
</g>
<g filter="url(#filter14_f_2272_15358)">
<ellipse cx="192.072" cy="292.5" rx="14.5472" ry="14.5" transform="rotate(180 192.072 292.5)" fill="#C9A2FF"/>
<path d="M178.025 292.5C178.025 284.77 184.312 278.5 192.072 278.5C199.832 278.5 206.119 284.77 206.119 292.5C206.119 300.23 199.832 306.5 192.072 306.5C184.312 306.5 178.025 300.23 178.025 292.5Z" stroke="#9EB3DD"/>
</g>
</g>
<defs>
<filter id="filter0_f_2272_15358" x="8.00049" y="10.9995" width="324" height="430" filterUnits="userSpaceOnUse" color-interpolation-filters="sRGB">
<feFlood flood-opacity="0" result="BackgroundImageFix"/>
<feBlend mode="normal" in="SourceGraphic" in2="BackgroundImageFix" result="shape"/>
<feGaussianBlur stdDeviation="4" result="effect1_foregroundBlur_2272_15358"/>
</filter>
<filter id="filter1_f_2272_15358" x="34.562" y="149.637" width="267.19" height="103.362" filterUnits="userSpaceOnUse" color-interpolation-filters="sRGB">
<feFlood flood-opacity="0" result="BackgroundImageFix"/>
<feBlend mode="normal" in="SourceGraphic" in2="BackgroundImageFix" result="shape"/>
<feGaussianBlur stdDeviation="3" result="effect1_foregroundBlur_2272_15358"/>
</filter>
<filter id="filter2_f_2272_15358" x="149.885" y="288.638" width="60.8613" height="137.844" filterUnits="userSpaceOnUse" color-interpolation-filters="sRGB">
<feFlood flood-opacity="0" result="BackgroundImageFix"/>
<feBlend mode="normal" in="SourceGraphic" in2="BackgroundImageFix" result="shape"/>
<feGaussianBlur stdDeviation="3" result="effect1_foregroundBlur_2272_15358"/>
</filter>
<filter id="filter3_f_2272_15358" x="279.152" y="150.638" width="49.7632" height="197.862" filterUnits="userSpaceOnUse" color-interpolation-filters="sRGB">
<feFlood flood-opacity="0" result="BackgroundImageFix"/>
<feBlend mode="normal" in="SourceGraphic" in2="BackgroundImageFix" result="shape"/>
<feGaussianBlur stdDeviation="3" result="effect1_foregroundBlur_2272_15358"/>
</filter>
<filter id="filter4_f_2272_15358" x="78.752" y="26.8379" width="226.025" height="127.491" filterUnits="userSpaceOnUse" color-interpolation-filters="sRGB">
<feFlood flood-opacity="0" result="BackgroundImageFix"/>
<feBlend mode="normal" in="SourceGraphic" in2="BackgroundImageFix" result="shape"/>
<feGaussianBlur stdDeviation="3" result="effect1_foregroundBlur_2272_15358"/>
</filter>
<filter id="filter5_f_2272_15358" x="51.7251" y="154.662" width="86.5171" height="211.724" filterUnits="userSpaceOnUse" color-interpolation-filters="sRGB">
<feFlood flood-opacity="0" result="BackgroundImageFix"/>
<feBlend mode="normal" in="SourceGraphic" in2="BackgroundImageFix" result="shape"/>
<feGaussianBlur stdDeviation="3" result="effect1_foregroundBlur_2272_15358"/>
</filter>
<filter id="filter6_f_2272_15358" x="25.6846" y="242.662" width="171.243" height="77.6675" filterUnits="userSpaceOnUse" color-interpolation-filters="sRGB">
<feFlood flood-opacity="0" result="BackgroundImageFix"/>
<feBlend mode="normal" in="SourceGraphic" in2="BackgroundImageFix" result="shape"/>
<feGaussianBlur stdDeviation="3" result="effect1_foregroundBlur_2272_15358"/>
</filter>
<filter id="filter7_f_2272_15358" x="0.000488281" y="216" width="61.0942" height="61" filterUnits="userSpaceOnUse" color-interpolation-filters="sRGB">
<feFlood flood-opacity="0" result="BackgroundImageFix"/>
<feBlend mode="normal" in="SourceGraphic" in2="BackgroundImageFix" result="shape"/>
<feGaussianBlur stdDeviation="8" result="effect1_foregroundBlur_2272_15358"/>
</filter>
<filter id="filter8_f_2272_15358" x="275.896" y="117" width="61.0942" height="61" filterUnits="userSpaceOnUse" color-interpolation-filters="sRGB">
<feFlood flood-opacity="0" result="BackgroundImageFix"/>
<feBlend mode="normal" in="SourceGraphic" in2="BackgroundImageFix" result="shape"/>
<feGaussianBlur stdDeviation="8" result="effect1_foregroundBlur_2272_15358"/>
</filter>
<filter id="filter9_f_2272_15358" x="77.251" y="131" width="61.0942" height="61" filterUnits="userSpaceOnUse" color-interpolation-filters="sRGB">
<feFlood flood-opacity="0" result="BackgroundImageFix"/>
<feBlend mode="normal" in="SourceGraphic" in2="BackgroundImageFix" result="shape"/>
<feGaussianBlur stdDeviation="8" result="effect1_foregroundBlur_2272_15358"/>
</filter>
<filter id="filter10_f_2272_15358" x="57.1865" y="2.99951" width="61.0942" height="61" filterUnits="userSpaceOnUse" color-interpolation-filters="sRGB">
<feFlood flood-opacity="0" result="BackgroundImageFix"/>
<feBlend mode="normal" in="SourceGraphic" in2="BackgroundImageFix" result="shape"/>
<feGaussianBlur stdDeviation="8" result="effect1_foregroundBlur_2272_15358"/>
</filter>
<filter id="filter11_f_2272_15358" x="32.105" y="324" width="61.0942" height="61" filterUnits="userSpaceOnUse" color-interpolation-filters="sRGB">
<feFlood flood-opacity="0" result="BackgroundImageFix"/>
<feBlend mode="normal" in="SourceGraphic" in2="BackgroundImageFix" result="shape"/>
<feGaussianBlur stdDeviation="8" result="effect1_foregroundBlur_2272_15358"/>
</filter>
<filter id="filter12_f_2272_15358" x="278.906" y="317" width="61.0942" height="61" filterUnits="userSpaceOnUse" color-interpolation-filters="sRGB">
<feFlood flood-opacity="0" result="BackgroundImageFix"/>
<feBlend mode="normal" in="SourceGraphic" in2="BackgroundImageFix" result="shape"/>
<feGaussianBlur stdDeviation="8" result="effect1_foregroundBlur_2272_15358"/>
</filter>
<filter id="filter13_f_2272_15358" x="175.57" y="388" width="61.0942" height="61" filterUnits="userSpaceOnUse" color-interpolation-filters="sRGB">
<feFlood flood-opacity="0" result="BackgroundImageFix"/>
<feBlend mode="normal" in="SourceGraphic" in2="BackgroundImageFix" result="shape"/>
<feGaussianBlur stdDeviation="8" result="effect1_foregroundBlur_2272_15358"/>
</filter>
<filter id="filter14_f_2272_15358" x="161.525" y="262" width="61.0942" height="61" filterUnits="userSpaceOnUse" color-interpolation-filters="sRGB">
<feFlood flood-opacity="0" result="BackgroundImageFix"/>
<feBlend mode="normal" in="SourceGraphic" in2="BackgroundImageFix" result="shape"/>
<feGaussianBlur stdDeviation="8" result="effect1_foregroundBlur_2272_15358"/>
</filter>
</defs>
</svg>
