<svg width="38" height="38" viewBox="0 0 38 38" fill="none" xmlns="http://www.w3.org/2000/svg">
    <rect width="38" height="38" rx="6" fill="#C9A2FF"/>
    <path d="M19.625 9H24.4688C24.9375 9 25.4453 9.23438 25.7969 9.58594L28.4141 12.2031C28.7656 12.5547 29 13.0625 29 13.5312V22.125C29 23.1797 28.1406 24 27.125 24H19.625C18.5703 24 17.75 23.1797 17.75 22.125V10.875C17.75 9.85938 18.5703 9 19.625 9ZM10.875 14H16.5V16.5H11.5V26.5H19V25.25H21.5V27.125C21.5 28.1797 20.6406 29 19.625 29H10.875C9.82031 29 9 28.1797 9 27.125V15.875C9 14.8594 9.82031 14 10.875 14Z" fill="#393939"/>
</svg>
