<svg width="16" height="17" viewBox="0 0 16 17" fill="none" xmlns="http://www.w3.org/2000/svg">
    <path d="M1 16.0938C1 13 3.46875 10.5 6.5625 10.5H9.40625C12.5 10.5 15 13 15 16.0938C15 16.5938 14.5625 17 14.0625 17H1.90625C1.40625 17 1 16.5938 1 16.0938Z"
          fill="white"/>
    <path opacity="0.4"
          d="M4 5C4 3.59375 4.75 2.28125 6 1.5625C7.21875 0.84375 8.75 0.84375 10 1.5625C11.2188 2.28125 12 3.59375 12 5C12 6.4375 11.2188 7.75 10 8.46875C8.75 9.1875 7.21875 9.1875 6 8.46875C4.75 7.75 4 6.4375 4 5Z"
          fill="white"/>
</svg>
