<svg width="33" height="34" viewBox="0 0 33 34" fill="none" xmlns="http://www.w3.org/2000/svg">
    <path d="M15.3889 1.375C16.3264 0.9375 17.3889 0.9375 18.3264 1.375L32.0139 7.6875C32.5139 7.9375 32.8889 8.4375 32.8889 9C32.8889 9.625 32.5139 10.125 32.0139 10.375L18.3264 16.6875C17.3889 17.125 16.3264 17.125 15.3889 16.6875L1.70142 10.375C1.20142 10.125 0.888916 9.625 0.888916 9C0.888916 8.4375 1.20142 7.9375 1.70142 7.6875L15.3889 1.375ZM32.0139 23.6875C32.5139 23.9375 32.8889 24.4375 32.8889 25C32.8889 25.625 32.5139 26.125 32.0139 26.375L18.3264 32.6875C17.3889 33.125 16.3264 33.125 15.3889 32.6875L1.70142 26.375C1.20142 26.125 0.888916 25.625 0.888916 25C0.888916 24.4375 1.20142 23.9375 1.70142 23.6875L5.07642 22.125L14.5764 26.5C16.0139 27.1875 17.7014 27.1875 19.1389 26.5L28.6389 22.125L32.0139 23.6875Z" fill="#585858"/>
    <path opacity="0.4" d="M19.1389 18.5L28.6389 14.125L32.0139 15.6875C32.5139 15.9375 32.8889 16.4375 32.8889 17C32.8889 17.625 32.5139 18.125 32.0139 18.375L18.3264 24.6875C17.3889 25.125 16.3264 25.125 15.3889 24.6875L1.70142 18.375C1.20142 18.125 0.888916 17.625 0.888916 17C0.888916 16.4375 1.20142 15.9375 1.70142 15.6875L5.07642 14.125L14.5764 18.5C16.0139 19.1875 17.7014 19.1875 19.1389 18.5Z" fill="#585858"/>
</svg>
