<svg width="40" height="40" viewBox="0 0 40 40" fill="none" xmlns="http://www.w3.org/2000/svg">
<path d="M10.0781 8.4375C10.8594 3.67188 15 0 20 0C24.6094 0 28.5156 3.20312 29.6094 7.5H26.875C25.0781 7.5 23.5156 6.64062 22.5781 5.23438C21.25 7.34375 18.9062 8.75 16.25 8.75H11.875C11.25 8.75 10.625 8.67188 10.0781 8.4375ZM18.8281 28.125L16.25 23.75H23.75L21.0938 28.125L23.75 37.8125L26.7969 25.1562C32.8125 26.0938 37.5 31.3281 37.5 37.6562C37.5 38.9844 36.4062 40 35.0781 40H4.84375C3.51562 40 2.5 38.9844 2.5 37.6562C2.5 31.3281 7.10938 26.0938 13.125 25.1562L16.1719 37.8125L18.8281 28.125Z" fill="#585858"/>
<path opacity="0.4" d="M22.5781 5.23438C23.5156 6.64062 25.0781 7.5 26.875 7.5H29.6094C29.8438 8.35938 30 9.14062 30 10C30 15.5469 25.4688 20 20 20C14.4531 20 10 15.5469 10 10C10 9.45312 10 8.98438 10.0781 8.4375C10.625 8.67188 11.25 8.75 11.875 8.75H16.25C18.9062 8.75 21.25 7.34375 22.5781 5.23438Z" fill="#585858"/>
</svg>
