<svg width="16" height="16" viewBox="0 0 16 16" fill="none" xmlns="http://www.w3.org/2000/svg">
    <path d="M6.5 3.5H4.75C4.5 3.5 4.25 3.46875 4.03125 3.375C4.34375 1.46875 6 0 8 0C9.84375 0 11.4062 1.28125 11.875 3H10.75C10.0312 3 9.40625 2.65625 9.03125 2.09375C8.53125 2.9375 7.5625 3.5 6.5 3.5ZM9.71875 15.9688L9.75 16H6.25V15.9688C6.1875 16 6.125 16 6.0625 16H1.9375C1.40625 16 1 15.5938 1 15.0625C1 12.6875 2.59375 10.7188 4.78125 10.1562C5.0625 10.0938 5.28125 10.2812 5.34375 10.5312L6.46875 15.125L7.53125 11.25L6.9375 10.2812C6.75 9.9375 6.96875 9.5 7.375 9.5H8H8.59375C9 9.5 9.21875 9.9375 9.03125 10.2812L8.4375 11.25L9.5 15.125L10.625 10.5312C10.6875 10.2812 10.9375 10.0938 11.1875 10.1562C13.375 10.7188 15 12.6875 15 15.0625C15 15.5938 14.5625 16 14.0312 16H9.90625C9.84375 16 9.78125 16 9.71875 15.9688Z"
          fill="white"/>
    <path opacity="0.4"
          d="M6.5 3.5C7.5625 3.5 8.53125 2.9375 9.03125 2.09375C9.40625 2.65625 10.0312 3 10.75 3H11.875C11.9375 3.34375 12 3.65625 12 4C12 6.21875 10.1875 8 8 8C5.78125 8 4 6.21875 4 4C4 3.78125 4 3.59375 4.03125 3.375C4.25 3.46875 4.5 3.5 4.75 3.5H6.5Z"
          fill="white"/>
</svg>
