<svg width="34" height="33" viewBox="0 0 34 33" fill="none" xmlns="http://www.w3.org/2000/svg">
    <path d="M15.4514 1.0625C15.6389 0.4375 16.2014 0.0625 16.8889 0V25.4375L8.76392 31.6875C8.26392 32.125 7.51392 32.125 7.01392 31.75C6.45142 31.375 6.20142 30.6875 6.45142 30.0625L9.63892 20.0625L1.45142 13.6875C0.951416 13.3125 0.701416 12.625 0.951416 12.0625C1.13892 11.4375 1.70142 11 2.38892 11H12.2639L15.4514 1.0625Z" fill="#585858"/>
    <path opacity="0.4" d="M18.2639 1.0625L21.4514 11H31.3889C32.0139 11 32.5764 11.4375 32.7639 12.0625C33.0139 12.625 32.7639 13.3125 32.2639 13.6875L24.0764 20.0625L27.2639 30.0625C27.5139 30.6875 27.2639 31.375 26.7014 31.75C26.2014 32.125 25.4514 32.125 24.9514 31.6875L16.8264 25.4375V0C17.5139 0.0625 18.0764 0.4375 18.2639 1.0625Z" fill="#585858"/>
</svg>
