<svg width="18" height="18" viewBox="0 0 18 18" fill="none" xmlns="http://www.w3.org/2000/svg">
    <path d="M6.15625 6C4.6875 6 3.40625 6.9375 2.9375 8.34375C2.78125 8.75 2.40625 9 2 9C1.875 9 1.78125 9 1.65625 8.96875C1.15625 8.78125 0.875 8.21875 1.03125 7.6875C1.78125 5.5 3.8125 4 6.15625 4H11.5625L10.2812 2.71875C9.875 2.34375 9.875 1.6875 10.2812 1.3125C10.6562 0.90625 11.3125 0.90625 11.6875 1.3125L14.6562 4.3125C15.0625 4.6875 15.0625 5.34375 14.6562 5.71875L11.6875 8.71875C11.3125 9.125 10.6562 9.125 10.2812 8.71875C9.875 8.34375 9.875 7.6875 10.2812 7.3125L11.5625 6H6.15625ZM16.3125 9.0625C16.8125 9.25 17.0938 9.8125 16.9375 10.3438C16.1875 12.5312 14.1562 14 11.8125 14H6.40625L7.6875 15.3125C8.09375 15.6875 8.09375 16.3438 7.6875 16.7188C7.3125 17.125 6.65625 17.125 6.28125 16.7188L3.3125 13.7188C2.90625 13.3438 2.90625 12.6875 3.3125 12.3125L6.28125 9.3125C6.65625 8.90625 7.3125 8.90625 7.6875 9.3125C8.09375 9.6875 8.09375 10.3438 7.6875 10.7188L6.40625 12H11.8125C13.2812 12 14.5625 11.0938 15 9.6875C15.1562 9.28125 15.5312 9 15.9688 9C16.0938 9 16.1875 9.03125 16.3125 9.0625Z" fill="white"/>
</svg>
