<svg width="33" height="32" viewBox="0 0 33 32" fill="none" xmlns="http://www.w3.org/2000/svg">
    <path d="M1.88892 10C1.88892 7.25 4.07642 5 6.88892 5C9.63892 5 11.8889 7.25 11.8889 10C11.8889 12.8125 9.63892 15 6.88892 15C4.07642 15 1.88892 12.8125 1.88892 10ZM6.88892 12C7.95142 12 8.88892 11.125 8.88892 10C8.88892 8.9375 7.95142 8 6.88892 8C5.76392 8 4.88892 8.9375 4.88892 10C4.88892 11.125 5.76392 12 6.88892 12ZM11.8889 22C11.8889 19.25 14.0764 17 16.8889 17C19.6389 17 21.8889 19.25 21.8889 22C21.8889 24.8125 19.6389 27 16.8889 27C14.0764 27 11.8889 24.8125 11.8889 22ZM16.8889 24C17.9514 24 18.8889 23.125 18.8889 22C18.8889 20.9375 17.9514 20 16.8889 20C15.7639 20 14.8889 20.9375 14.8889 22C14.8889 23.125 15.7639 24 16.8889 24ZM31.8889 12C31.8889 14.8125 29.6389 17 26.8889 17C24.0764 17 21.8889 14.8125 21.8889 12C21.8889 9.25 24.0764 7 26.8889 7C29.6389 7 31.8889 9.25 31.8889 12ZM26.8889 10C25.7639 10 24.8889 10.9375 24.8889 12C24.8889 13.125 25.7639 14 26.8889 14C27.9514 14 28.8889 13.125 28.8889 12C28.8889 10.9375 27.9514 10 26.8889 10Z" fill="#585858"/>
    <path opacity="0.4" d="M6.88892 0C7.95142 0 8.88892 0.9375 8.88892 2V5.4375C8.26392 5.1875 7.57642 5 6.88892 5C6.13892 5 5.45142 5.1875 4.88892 5.4375V2C4.88892 0.9375 5.76392 0 6.88892 0ZM6.88892 15C7.57642 15 8.26392 14.875 8.88892 14.625V30C8.88892 31.125 7.95142 32 6.88892 32C5.76392 32 4.88892 31.125 4.88892 30V14.625C5.45142 14.875 6.13892 15 6.88892 15ZM16.8889 0C17.9514 0 18.8889 0.9375 18.8889 2V17.4375C18.2639 17.1875 17.5764 17 16.8889 17C16.1389 17 15.4514 17.1875 14.8889 17.4375V2C14.8889 0.9375 15.7639 0 16.8889 0ZM16.8889 27C17.5764 27 18.2639 26.875 18.8889 26.625V30C18.8889 31.125 17.9514 32 16.8889 32C15.7639 32 14.8889 31.125 14.8889 30V26.625C15.4514 26.875 16.1389 27 16.8889 27ZM28.8889 7.4375C28.2639 7.1875 27.5764 7 26.8889 7C26.1389 7 25.4514 7.1875 24.8889 7.4375V2C24.8889 0.9375 25.7639 0 26.8889 0C27.9514 0 28.8889 0.9375 28.8889 2V7.4375ZM24.8889 16.625C25.4514 16.875 26.1389 17 26.8889 17C27.5764 17 28.2639 16.875 28.8889 16.625V30C28.8889 31.125 27.9514 32 26.8889 32C25.7639 32 24.8889 31.125 24.8889 30V16.625Z" fill="#585858"/>
</svg>
