<svg width="16" height="16" viewBox="0 0 16 16" fill="none" xmlns="http://www.w3.org/2000/svg">
    <path d="M8.1875 0.03125L12.9375 1.28125C13.1875 1.375 13.4062 1.5625 13.4688 1.84375C13.5312 2.125 13.4375 2.40625 13.2188 2.59375L12.4688 3.21875C12.4688 3.25 12.4688 3.28125 12.4688 3.3125V3.96875C12.4688 4.3125 12.3125 4.625 12 4.78125C11.25 5.09375 9.875 5.53125 7.96875 5.53125C6.09375 5.53125 4.71875 5.09375 3.96875 4.78125C3.65625 4.625 3.5 4.3125 3.5 3.96875V3.3125C3.5 3.28125 3.5 3.25 3.5 3.21875L2.75 2.59375C2.53125 2.40625 2.4375 2.125 2.5 1.84375C2.5625 1.5625 2.78125 1.34375 3.03125 1.28125L7.78125 0.03125C7.90625 0 8.0625 0 8.1875 0.03125ZM6.03125 2.28125C5.90625 2.53125 6.03125 2.84375 6.25 2.96875L7.75 3.71875C7.90625 3.78125 8.0625 3.78125 8.21875 3.71875L9.71875 2.96875C9.96875 2.84375 10.0625 2.53125 9.9375 2.28125C9.8125 2.03125 9.5 1.9375 9.25 2.0625L8 2.71875L6.71875 2.0625C6.46875 1.9375 6.15625 2.03125 6.03125 2.28125ZM5.4375 11.0938L7.6875 12.7812C7.875 12.9375 8.09375 12.9375 8.28125 12.7812L10.5312 11.0938C10.625 11.0312 10.6875 11 10.7812 11C13.0938 11 15 12.9062 15 15.2188C15 15.6562 14.625 16 14.1875 16H1.78125C1.34375 16 1 15.6562 1 15.2188C1 12.9062 2.875 11 5.1875 11C5.28125 11 5.34375 11.0312 5.4375 11.0938ZM11 13.5C11 13.7812 11.2188 14 11.5 14H12.5C12.75 14 13 13.7812 13 13.5C13 13.25 12.75 13 12.5 13H11.5C11.2188 13 11 13.25 11 13.5Z" fill="white"/>
    <path opacity="0.4" d="M4.15625 4.84375C5.34375 5.28125 6.65625 5.5 8 5.5C9.34375 5.5 10.625 5.28125 11.8125 4.84375C11.9375 5.21875 12 5.59375 12 6C12 8.21875 10.1875 10 8 10C5.78125 10 4 8.21875 4 6C4 5.59375 4.0625 5.21875 4.15625 4.84375Z" fill="white"/>
</svg>
