<svg width="40" height="40" viewBox="0 0 40 40" fill="none" xmlns="http://www.w3.org/2000/svg">
<path d="M27.4219 27.5781C32.9688 27.8125 37.5 32.3438 37.5 37.9688C37.5 39.1406 36.5625 40 35.3906 40H4.53125C3.35938 40 2.5 39.1406 2.5 37.9688C2.5 32.3438 6.95312 27.8125 12.5 27.5781L20 32.5L27.4219 27.5781ZM31.25 35C31.875 35 32.5 34.4531 32.5 33.75C32.5 33.125 31.875 32.5 31.25 32.5H28.75C28.0469 32.5 27.5 33.125 27.5 33.75C27.5 34.4531 28.0469 35 28.75 35H31.25ZM8.59375 8.04688L6.875 6.32812C6.5625 5.9375 6.32812 5.46875 6.32812 4.92188C6.32812 4.0625 6.95312 3.28125 7.8125 3.04688L19.375 0.078125C19.7656 0 20.1562 0 20.5469 0.078125L32.1875 3.04688C32.9688 3.28125 33.5938 4.0625 33.5938 4.92188C33.5938 5.46875 33.4375 5.9375 33.0469 6.32812L31.3281 8.04688V11.4844C28.125 12.8906 24.2188 13.75 20 13.75C15.7031 13.75 11.7969 12.8906 8.59375 11.4844V8.04688ZM15.0781 5.70312C14.7656 6.32812 15 7.10938 15.625 7.5L19.375 9.29688C19.6094 9.375 19.7656 9.375 20 9.375C20.1562 9.375 20.3125 9.375 20.5469 9.21875L24.2969 7.42188C24.9219 7.10938 25.1562 6.32812 24.8438 5.70312C24.5312 5.07812 23.75 4.84375 23.125 5.15625L20 6.79688L16.7969 5.15625C16.1719 4.84375 15.3906 5.07812 15.0781 5.70312Z" fill="#585858"/>
<path opacity="0.4" d="M29.5312 12.1875C29.7656 13.125 29.9219 14.0625 29.9219 15C29.9219 20.5469 25.3906 25 20 25C14.5312 25 10 20.5469 10 15C10 14.0625 10.1562 13.125 10.3906 12.1875C13.2031 13.2031 16.4844 13.75 20 13.75C23.4375 13.75 26.7188 13.2031 29.5312 12.1875Z" fill="#585858"/>
</svg>
