<svg width="54" height="60" viewBox="0 0 54 60" fill="none" xmlns="http://www.w3.org/2000/svg">
    <g opacity="0.3">
        <path d="M29.125 1.25C30.625 -0.375 33.25 -0.375 34.75 1.25L58.75 25.25C60.375 26.75 60.375 29.375 58.75 30.875C57.25 32.5 54.625 32.5 53.125 30.875L32 9.75L10.75 30.875C9.25 32.5 6.625 32.5 5.125 30.875C3.5 29.375 3.5 26.75 5.125 25.25L29.125 1.25Z" fill="#C9A2FF"/>
        <path opacity="0.4" d="M29.125 25.25C30.625 23.625 33.25 23.625 34.75 25.25L58.75 49.25C60.375 50.75 60.375 53.375 58.75 54.875C57.25 56.5 54.625 56.5 53.125 54.875L32 33.75L10.75 54.875C9.25 56.5 6.625 56.5 5.125 54.875C3.5 53.375 3.5 50.75 5.125 49.25L29.125 25.25Z" fill="#C9A2FF"/>
    </g>
</svg>
