<svg width="22" height="22" viewBox="0 0 22 22" fill="none" xmlns="http://www.w3.org/2000/svg">
    <path opacity="0.4"
          d="M0.5 18.5V3.5C0.5 1.85938 1.8125 0.5 3.5 0.5H18.5C20.1406 0.5 21.5 1.85938 21.5 3.5V18.5C21.5 20.1875 20.1406 21.5 18.5 21.5H3.5C1.8125 21.5 0.5 20.1875 0.5 18.5ZM6.82812 10.2031V10.25C6.35938 10.6719 6.35938 11.375 6.82812 11.7969L11.7031 16.6719C12.125 17.1406 12.8281 17.1406 13.25 16.6719C13.7188 16.25 13.7188 15.5469 13.25 15.0781L9.17188 11L13.25 6.92188C13.7188 6.5 13.7188 5.79688 13.25 5.32812C12.8281 4.90625 12.125 4.90625 11.7031 5.32812L6.82812 10.2031Z"
          fill="#D9D9D9"/>
</svg>
