<svg width="24" height="19" viewBox="0 0 24 19" fill="none" xmlns="http://www.w3.org/2000/svg">
    <rect y="0.5" width="24" height="18" rx="4" fill="#C9A2FF"/>
    <path d="M16.1016 6.37891L13.2305 9.25L16.1016 12.1484C16.457 12.4766 16.457 13.0508 16.1016 13.3789C15.7734 13.7344 15.1992 13.7344 14.8711 13.3789L12 10.5078L9.10156 13.3789C8.77344 13.7344 8.19922 13.7344 7.87109 13.3789C7.51562 13.0508 7.51562 12.4766 7.87109 12.1484L10.7422 9.25L7.87109 6.37891C7.51562 6.05078 7.51562 5.47656 7.87109 5.14844C8.19922 4.79297 8.77344 4.79297 9.10156 5.14844L12 8.01953L14.8711 5.14844C15.1992 4.79297 15.7734 4.79297 16.1016 5.14844C16.457 5.47656 16.457 6.05078 16.1016 6.37891Z" fill="white"/>
</svg>
