<svg width="28" height="25" viewBox="0 0 28 25" fill="none" xmlns="http://www.w3.org/2000/svg">
    <path d="M12.9688 1.375C13.5312 0.90625 14.4219 0.90625 14.9844 1.375L26.9844 11.875C27.5938 12.4375 27.6406 13.375 27.125 14.0312C26.5625 14.6406 25.625 14.6875 24.9688 14.1719L14 4.51562L2.98438 14.1719C2.32812 14.6875 1.39062 14.6406 0.828125 14.0312C0.3125 13.375 0.359375 12.4375 0.96875 11.875L12.9688 1.375Z"
          fill="#D9D9D9"/>
    <path opacity="0.4"
          d="M14 4.51562L24.5 13.7031V23.125C24.5 24.1562 23.6562 25 22.625 25H18.875C17.7969 25 17 24.2031 17 23.125V19C17 18.1562 16.2969 17.5 15.5 17.5H12.5C11.6562 17.5 11 18.1562 11 19V23.125C11 24.2031 10.1562 25 9.125 25H5.375C4.29688 25 3.5 24.2031 3.5 23.125V13.7031L14 4.51562Z"
          fill="#D9D9D9"/>
</svg>
