<svg width="24" height="24" viewBox="0 0 24 24" fill="none" xmlns="http://www.w3.org/2000/svg">
    <path d="M22.5 4.5C22.5 5.34375 21.7969 6 21 6H3C2.15625 6 1.5 5.34375 1.5 4.5C1.5 3.70312 2.15625 3 3 3H21C21.7969 3 22.5 3.70312 22.5 4.5ZM22.5 19.5C22.5 20.3438 21.7969 21 21 21H3C2.15625 21 1.5 20.3438 1.5 19.5C1.5 18.7031 2.15625 18 3 18H21C21.7969 18 22.5 18.7031 22.5 19.5Z" fill="#D9D9D9"/>
    <path opacity="0.4" d="M1.5 12C1.5 11.2031 2.15625 10.5 3 10.5H21C21.7969 10.5 22.5 11.2031 22.5 12C22.5 12.8438 21.7969 13.5 21 13.5H3C2.15625 13.5 1.5 12.8438 1.5 12Z" fill="#D9D9D9"/>
</svg>
