<svg width="24" height="19" viewBox="0 0 24 19" fill="none" xmlns="http://www.w3.org/2000/svg">
    <rect y="0.5" width="24" height="18" rx="4" fill="#C9A2FF"/>
    <path d="M8.83438 4.35742H7.16922C6.93931 4.35742 6.75293 4.5438 6.75293 4.77371V14.1402C6.75293 14.3701 6.93931 14.5565 7.16922 14.5565H8.83438C9.06429 14.5565 9.25067 14.3701 9.25067 14.1402V4.77371C9.25067 4.5438 9.06429 4.35742 8.83438 4.35742Z" fill="white"/>
    <path d="M18.2864 9.95975L13.9154 14.3308C13.6421 14.6268 13.1641 14.6268 12.8909 14.3308C12.5949 14.0576 12.5949 13.5796 12.8909 13.3063L16.7383 9.43614L12.8909 5.58871C12.5949 5.31553 12.5949 4.83744 12.8909 4.56425C13.1641 4.2683 13.6421 4.2683 13.9154 4.56425L18.2864 8.93529C18.5823 9.20849 18.5823 9.68657 18.2864 9.95975ZM9.54428 14.3308C9.2711 14.6268 8.79301 14.6268 8.51982 14.3308C8.22386 14.0576 8.22386 13.5796 8.51982 13.3063L12.3673 9.43614L8.51982 5.58871C8.22386 5.31553 8.22386 4.83744 8.51982 4.56425C8.79301 4.2683 9.2711 4.2683 9.54428 4.56425L13.9154 8.93529C14.2113 9.20849 14.2113 9.68657 13.9154 9.95975L9.54428 14.3308Z" fill="white"/>
    <path d="M13.7292 10.23L9.77451 14.1848C9.49643 14.4628 9.06388 14.5555 8.69313 14.4011C8.32237 14.2465 8.0752 13.8758 8.0752 13.4741V5.56466C8.0752 5.163 8.32237 4.82314 8.69313 4.66866C9.06388 4.51417 9.49643 4.60687 9.77451 4.88493L13.7292 8.83968C14.1309 9.21044 14.1309 9.85927 13.7292 10.23Z" fill="white"/>
</svg>
