<svg width="24" height="24" viewBox="0 0 24 24" fill="none" xmlns="http://www.w3.org/2000/svg">
    <path d="M22.9219 9L21.4688 10.3125C21.0938 10.6406 20.9531 11.1094 20.9531 11.625C20.9531 11.7656 21 11.8594 21 12C21 12.1406 20.9531 12.2812 20.9531 12.4219C20.9531 12.9375 21.1406 13.4062 21.4688 13.7344L22.9219 15.0469C23.25 15.3281 23.3906 15.7969 23.25 16.2188C23.0156 16.7812 22.7812 17.2969 22.5 17.8125L22.2656 18.1875C21.9375 18.7031 21.6094 19.2188 21.2344 19.6406C20.9531 20.0156 20.4844 20.1094 20.0625 19.9688L18.2344 19.4062C17.7656 19.2656 17.25 19.3594 16.8281 19.5938C16.5938 19.7344 16.3594 19.875 16.125 20.0156C15.7031 20.25 15.3281 20.625 15.2344 21.0938L14.8125 23.0156C14.7188 23.4375 14.3906 23.7656 13.9688 23.8594C13.3125 23.9531 12.6562 24 12 24C11.2969 24 10.6406 23.9531 9.98438 23.8594C9.5625 23.7656 9.23438 23.4375 9.14062 23.0156L8.71875 21.0938C8.625 20.625 8.25 20.25 7.82812 20.0156C7.59375 19.875 7.35938 19.7344 7.125 19.5938C6.70312 19.3594 6.1875 19.2188 5.71875 19.4062L3.89062 19.9688C3.46875 20.1094 3 20.0156 2.71875 19.6406C2.34375 19.2188 2.01562 18.7031 1.6875 18.1875L1.45312 17.8125C1.17188 17.2969 0.9375 16.7812 0.75 16.2188C0.5625 15.7969 0.703125 15.3281 1.03125 15.0469L2.48438 13.7344C2.85938 13.4062 3 12.9375 3 12.4219C3 12.2812 3 12.1406 3 12C3 11.8594 3 11.7188 3 11.625C3 11.1094 2.85938 10.6406 2.48438 10.3125L1.03125 9C0.703125 8.67188 0.5625 8.25 0.75 7.82812C0.9375 7.26562 1.17188 6.75 1.45312 6.23438L1.6875 5.85938C2.01562 5.34375 2.34375 4.82812 2.71875 4.35938C3 4.03125 3.46875 3.9375 3.89062 4.07812L5.71875 4.64062C6.1875 4.78125 6.70312 4.6875 7.125 4.45312C7.35938 4.26562 7.59375 4.17188 7.82812 4.03125C8.25 3.79688 8.625 3.42188 8.71875 2.90625L9.14062 1.03125C9.23438 0.609375 9.5625 0.234375 9.98438 0.1875C10.6406 0.09375 11.2969 0 12 0C12.6562 0 13.3125 0.09375 13.9688 0.1875C14.3906 0.28125 14.7188 0.609375 14.8125 1.03125L15.2344 2.95312C15.3281 3.42188 15.7031 3.79688 16.125 4.03125C16.3594 4.17188 16.5938 4.3125 16.8281 4.45312C17.25 4.6875 17.7656 4.78125 18.2344 4.64062L20.0625 4.07812C20.4844 3.9375 20.9531 4.03125 21.2344 4.35938C21.6094 4.82812 21.9375 5.34375 22.2656 5.85938L22.5 6.23438C22.7812 6.75 23.0156 7.26562 23.25 7.82812C23.3906 8.25 23.25 8.67188 22.9219 9ZM12 7.5C10.3594 7.5 8.90625 8.39062 8.0625 9.75C7.26562 11.1562 7.26562 12.8906 8.0625 14.25C8.90625 15.6562 10.3594 16.5 12 16.5C13.5938 16.5 15.0469 15.6562 15.8906 14.25C16.6875 12.8906 16.6875 11.1562 15.8906 9.75C15.0469 8.39062 13.5938 7.5 12 7.5Z"
          fill="#D9D9D9"/>
    <path opacity="0.4"
          d="M9 12C9 10.9688 9.5625 9.98438 10.5 9.42188C11.3906 8.90625 12.5625 8.90625 13.5 9.42188C14.3906 9.98438 15 10.9688 15 12C15 13.0781 14.3906 14.0625 13.5 14.625C12.5625 15.1406 11.3906 15.1406 10.5 14.625C9.5625 14.0625 9 13.0781 9 12Z"
          fill="#D9D9D9"/>
</svg>
